<?xml version="1.0" encoding="utf-8"?>
<!-- Generator: Adobe Illustrator 26.1.0, SVG Export Plug-In . SVG Version: 6.00 Build 0)  -->
<svg version="1.1" id="Happy_students" xmlns="http://www.w3.org/2000/svg" xmlns:xlink="http://www.w3.org/1999/xlink" x="0px"
	 y="0px" viewBox="0 0 400 400" style="enable-background:new 0 0 400 400;" xml:space="preserve">
<style type="text/css">
	.st0{opacity:0.1;}
	.st1{fill:#590800;}
	.st2{fill:#E1784E;}
	.st3{fill:url(#SVGID_1_);}
	.st4{fill:url(#SVGID_00000026147309964009999850000007026024134028556210_);}
	.st5{fill:#FE9300;}
	.st6{fill:#C4552D;}
	.st7{fill:url(#SVGID_00000119810844382850085330000005429716119371497139_);}
	.st8{fill:#460030;}
	.st9{fill:url(#SVGID_00000049902314122983517530000005964522603533273013_);}
	.st10{fill:#FFFFFF;}
	.st11{fill:url(#SVGID_00000177475160090603977430000005578386921415236250_);}
	.st12{fill:url(#SVGID_00000057128623483305004320000017902479027537157254_);}
	.st13{fill:url(#SVGID_00000171695781211734574060000014181254395635246766_);}
	.st14{opacity:0.2;fill:#B26485;}
	.st15{fill:url(#SVGID_00000170975549082180613170000012274597753881102777_);}
	.st16{fill:url(#SVGID_00000044884857795980005500000008389478914157887120_);}
	.st17{opacity:0.5;fill:url(#SVGID_00000162345640596462758680000014878830810437944480_);}
	.st18{opacity:0.5;fill:url(#SVGID_00000151509194809790035080000012919600359115169703_);}
	.st19{opacity:0.5;}
	.st20{fill:#F47100;}
	.st21{fill:#6F0800;}
	.st22{fill:#003363;}
	.st23{opacity:0.5;fill:#FFBF10;}
	.st24{fill:#630E41;}
	.st25{fill:url(#SVGID_00000074404577313428150310000008597457106132974013_);}
	.st26{fill:url(#SVGID_00000128443023737620890050000013401346593688123044_);}
	.st27{fill:url(#SVGID_00000075878124265595626730000009854391110917562518_);}
	.st28{fill:#88271D;}
	.st29{fill:#006070;}
	.st30{fill:#003370;}
	.st31{fill:#000D36;}
	.st32{fill:url(#SVGID_00000037683306411480141950000015467190940697116801_);}
	.st33{fill:url(#SVGID_00000140697584715403404290000011552594358155793303_);}
	.st34{fill:url(#SVGID_00000138568588188339172260000009478678834723946939_);}
	.st35{fill:url(#SVGID_00000067217347196350259290000001844526824685520808_);}
	.st36{fill:#910000;}
	.st37{fill:#930000;}
	.st38{fill:url(#SVGID_00000011001738410721958960000004736094632185978241_);}
	.st39{fill:url(#SVGID_00000056386317906550158130000014514172197650065573_);}
	.st40{fill:url(#SVGID_00000119833436266236240010000014800130820081336987_);}
	.st41{opacity:0.5;fill:#FFFFFF;}
	.st42{fill:url(#SVGID_00000057146985111280817020000012950104869437320102_);}
	.st43{opacity:0.59;fill:#590800;}
	.st44{opacity:0.3;fill:#C13C32;}
	.st45{fill:#6DF2BF;}
	.st46{fill:#57D19C;}
	.st47{fill:url(#SVGID_00000085969643164772558240000008011271001413864327_);}
	.st48{fill:url(#SVGID_00000036940520348763270820000013836916373486172820_);}
	.st49{fill:#A00000;}
	.st50{fill:url(#SVGID_00000103964959346113883220000011280386711497841041_);}
	.st51{fill:#E71400;}
	.st52{opacity:0.5;fill:#930000;}
	.st53{fill:url(#SVGID_00000109727495599413879630000013587346425870440331_);}
	.st54{fill:#550547;}
	.st55{fill:#FFBF10;}
	.st56{fill:#FFA110;}
	.st57{fill:url(#SVGID_00000176723202144722264180000005847304121126916028_);}
	.st58{fill:url(#SVGID_00000109707806177075530160000001933405923515697561_);}
	.st59{fill:url(#SVGID_00000111149908184415185320000002248482255462465982_);}
	.st60{fill:#94001F;}
	.st61{fill:#B8AAFF;}
	.st62{fill:url(#SVGID_00000159457767673633807150000012944835167976082623_);}
	.st63{fill:url(#SVGID_00000173123591953273356370000004190768045263465632_);}
	.st64{fill:url(#SVGID_00000090290951479252460600000013978063118310626734_);}
	.st65{fill:url(#SVGID_00000124875798340982979670000010096018195305606571_);}
	.st66{fill:url(#SVGID_00000052083624032037909170000003961818947306432160_);}
	.st67{fill:#DBCCFF;}
	.st68{fill:url(#SVGID_00000106127002601704248260000014677051435614403738_);}
	.st69{fill:url(#SVGID_00000112606932855134419750000015179693461747862459_);}
	.st70{opacity:0.5;fill:#94001F;}
	.st71{fill:#00427F;}
	.st72{fill:url(#SVGID_00000015337641428061237940000017525280741677387957_);}
	.st73{fill:url(#SVGID_00000082345604728920898480000016810996559085864877_);}
	.st74{fill:#0077A6;}
	.st75{opacity:0.5;fill:#0077A6;}
	.st76{fill:url(#SVGID_00000012458849110996606520000002088105797614060687_);}
	.st77{fill:url(#SVGID_00000065054413183012607700000006905760222410696848_);}
	.st78{opacity:0.5;fill:#00274A;}
	.st79{fill:url(#SVGID_00000176733284866178735210000018144863360571562173_);}
	.st80{fill:url(#SVGID_00000005240344388985007350000010836554654811764136_);}
	.st81{fill:url(#SVGID_00000181788256240283776850000015119826349573739145_);}
	.st82{fill:url(#SVGID_00000035497194286948253850000003740014696332173471_);}
	.st83{fill:url(#SVGID_00000124147583714580682370000017015298727833974716_);}
	.st84{fill:#C989FF;}
	.st85{fill:url(#SVGID_00000100358042602782519970000017401586290303870386_);}
	.st86{fill:url(#SVGID_00000123436498489710812180000011325389532898086334_);}
	.st87{fill:url(#SVGID_00000035505953151023780350000013908544778951232142_);}
	.st88{fill:#DB595C;}
	.st89{fill:#AD1834;}
	.st90{fill:url(#SVGID_00000132071322936615148860000006238007868195513737_);}
	.st91{fill:#DB9FFF;}
	.st92{fill:url(#SVGID_00000083068340613960583570000012894819911350239150_);}
	.st93{fill:url(#SVGID_00000124843989804218444360000015037886151474736572_);}
	.st94{fill:url(#SVGID_00000101811991965518162270000009325977249518128778_);}
	.st95{fill:url(#SVGID_00000083783538567823171340000006166747764289688711_);}
	.st96{fill:url(#SVGID_00000136377995583357049940000017180882101716711318_);}
	.st97{fill:url(#SVGID_00000139999879380112354290000003308794977054137222_);}
	.st98{fill:#C977FF;}
	.st99{fill:url(#SVGID_00000074429868352989223050000017485210908534965136_);}
	.st100{fill:url(#SVGID_00000169551142290350378740000015978581535001981847_);}
	.st101{fill:url(#SVGID_00000148652755102566710850000016157374578818487735_);}
</style>
<path class="st0" d="M399.6,372.4c-0.1,8.4-110.9,14.8-194.9,15.2c-90.2,0.4-205-6-205.1-14.6c-0.1-8.2,105.5-18.4,202.6-18.4
	C296.6,354.6,399.7,364.3,399.6,372.4z"/>
<g>
	<path class="st1" d="M349.5,142.3c0,0,6.3,22.3,7.7,29.1c2.1,10.3-10.4,35.6-11.2,37.6c-0.8,2-11.3,6.5-14.2,3.7
		c-2.9-2.7-8.5-29.3-8.4-33.4c0.1-4.1,11.4-19.7,11.4-19.7L349.5,142.3z"/>
	<path class="st2" d="M347,247.6c-1.3,0.3-3.1-1.7-3.1-1.7l5.9-1.6C349.7,244.4,348.9,247.2,347,247.6z"/>
	<linearGradient id="SVGID_1_" gradientUnits="userSpaceOnUse" x1="279.0129" y1="364.2429" x2="312.3459" y2="364.2429">
		<stop  offset="0" style="stop-color:#DDF8FD"/>
		<stop  offset="1" style="stop-color:#8290C5"/>
	</linearGradient>
	<path class="st3" d="M279,364.2v3.4c0,0,8.2,1.2,16.7,0.5c8.5-0.7,16.6-5.5,16.6-5.5l-3-2.5L279,364.2z"/>
	
		<linearGradient id="SVGID_00000180356528691705887420000016419575886651283374_" gradientUnits="userSpaceOnUse" x1="313.4609" y1="372.4525" x2="338.5692" y2="372.4525">
		<stop  offset="0" style="stop-color:#DDF8FD"/>
		<stop  offset="1" style="stop-color:#8290C5"/>
	</linearGradient>
	<path style="fill:url(#SVGID_00000180356528691705887420000016419575886651283374_);" d="M313.5,370.8v3.7c0,0,7.2,1.6,13.2,1.1
		c6-0.5,11.9-4.7,11.9-4.7l-1.2-1.5L313.5,370.8z"/>
	<path class="st5" d="M308.4,285.5c-1.1,4.8,2.3,23.7,3.1,28.9c0.8,5.2-1.9,28.6-1.9,28.6l-0.1,0c-0.4-0.1-2.4-0.5-4.7-0.7l-0.2,0
		c-2-0.2-4.1-0.3-5.5,0c-3.1,0.8-6.8,1.5-6.8,1.5s-4.2-36.3-4.2-40.8c0-4.5-2.5-12.8-2.3-16.2c0-0.1,0-0.3,0-0.5
		c0.4-5.5,4.2-40.5,5.2-44.5c0.1-0.4,0.2-0.7,0.4-1c1.9-3.3,8.7-4.1,8.7-4.1l18,5.1l-3.7,18.1C314.6,260,309.5,280.7,308.4,285.5z"
		/>
	<path class="st5" d="M339.9,345c-0.2,1.8-0.7,8.8-0.7,8.8s-14.8-4.2-16.5-3.4c-1.7,0.8-7.1,1.8-7.1,1.8s4.6-32.9,4.6-35.4
		c0-2.5-2.6-12-2.6-16.6c0-4.6-1.9-33.7-3-39.2c-1.1-5.5-2.4-12.3-7-16c-4.6-3.7-9.2-5.4-12.2-4.8c-2.9,0.6-4.5,1.5-4.5,1.5
		l-0.2-6.2c0,0,0.3-0.3,0.9-0.9c0,0,0,0,0,0c2.4-2.3,9.4-8.4,19.2-11.3c14.8-4.4,25.1-2.6,25.1-2.6s3.4,13.7,3.8,17.9
		c0.5,4.2-3.2,46-2.6,54.1c0.6,8.1,1.5,20.7,1.5,25.3c0,4.3-1.2,10.2-0.9,13c0,0.2,0,0.4,0.1,0.6C338.5,334.1,340.1,343.2,339.9,345
		z"/>
	<path class="st2" d="M256.5,199.9c0,0-3.7,5.3-6.4,7.5c-2.6,2.2-5.2,3.5-6.4,4.6s-4,4.6-5,5c-1,0.4-1-1.2-1-1.2s-0.8,1.8-1.8,1.5
		s-1-1.1-1-1.1s-0.3,0.1-0.8-0.5c-0.5-0.7,1.7-3.8,2.6-5.2c0.9-1.4,4.8-4.6,4.8-4.6s-4,2.7-5.5,3.9c-1.5,1.1-2.6,3.3-3.3,3.9
		c-0.7,0.6-1.1-0.9-0.5-2.6c0.6-1.7,3.5-4.1,4.3-5.2c0.8-1,6.1-3.9,7.5-4.1C245.8,201.4,256.5,199.9,256.5,199.9z"/>
	<path class="st2" d="M297,179c0,0-0.4,0.3-1,0.8c-2.3,2-8.1,6.9-10.7,8.3c-2.7,1.4-17.1,6.2-23.6,8.5c-1.6,0.6-2.7,1-3,1.2
		c0,0,0,0,0,0c-1.8,1-4.8,6.4-7.4,6.9c-2.6,0.5-7.9-0.8-7.9-0.8s-2.4,1.3-4.8,3.7c-1.5,1.6-5.9,1.7-6.5,1.1
		c-0.6-0.5,1.4-1.9,2.8-2.4c1.4-0.5,2.9-2.7,6-5.2c3.1-2.5,9.7-4.6,13.5-6.3c3.8-1.7,5.3-2.4,13.5-9.3c3.7-3.1,7.6-6.1,10.7-8.4
		c2.8-2.1,4.9-3.6,5.9-4.3c0.3-0.2,0.5-0.4,0.5-0.4C291.2,172,297,179,297,179z"/>
	<path class="st6" d="M296,179.8c-2.3,2-8.1,6.9-10.7,8.3c-2.7,1.4-17.1,6.2-23.6,8.5c4.5-1.8,12.6-5.5,14.7-8.9
		c2.6-4.1,2.1-9.2,2-10.6c2.8-2.1,4.9-3.6,5.9-4.3L296,179.8z"/>
	
		<linearGradient id="SVGID_00000134962441970259450350000014618499100305475257_" gradientUnits="userSpaceOnUse" x1="284.2032" y1="174.4171" x2="284.2032" y2="122.9297">
		<stop  offset="0" style="stop-color:#8BA7FD"/>
		<stop  offset="1" style="stop-color:#95BAFF"/>
	</linearGradient>
	<path style="fill:url(#SVGID_00000134962441970259450350000014618499100305475257_);" d="M291.2,122.9l-0.2,11.3l-0.1,2.6l0,1.9
		l-0.2,8.9l0,1.8l-0.2,8.4l0,1.8l-0.2,10.3l0,1.9l-0.1,2.6h-12.9c0,0,0.3-1.4,0.8-3.8c0.1-0.6,0.2-1.2,0.4-1.9
		c0.4-2.1,0.8-4.6,1.2-7.4c0.1-0.6,0.2-1.3,0.3-2c0.1-0.6,0.1-1.2,0.2-1.8c0.3-2.7,0.5-5.9,0.8-9.2c0.1-0.6,0.1-1.2,0.2-1.9
		c0.3-4,0.7-8,1-11.2c0.1-0.7,0.1-1.3,0.2-1.8c0.2-2.1,0.5-3.6,0.8-4.4c0.5-1.5,1.9-2.7,3.4-3.7
		C288.6,123.8,291.2,122.9,291.2,122.9z"/>
	<path class="st8" d="M291.6,189.6c0,0-6.4-4.4-10.4-6.9c-4.5-2.7-6.3-2.5-7.3-3.4c-0.5-0.5,2.1-9,2.7-9.3c0.6-0.3,2.2,0.2,6.9,1.1
		c5.8,1.2,8.2,2.8,8.2,2.8V189.6z"/>
	<path class="st2" d="M324.6,119.8c0,0-2.9,2.1-10.4,3.3c-7.5,1.2-11.7-3.9-11.7-3.9s1.8-0.5,3.5-1.2c1-0.4,2-1,2.6-1.5
		c1.5-1.5,1-3.4,1-3.4l9.7-5.9c0,0-0.4,6.3-0.1,8.1c0.1,0.6,0.7,1.3,1.5,2C322.4,118.5,324.6,119.8,324.6,119.8z"/>
	<path class="st6" d="M320.8,117.1c0,0-3.3,1.6-7.9,1.6c-4.5,0-6.9-0.8-6.9-0.8c1-0.4,2-1,2.6-1.5c1.5-1.5,1-3.4,1-3.4l9.7-5.9
		c0,0-0.4,6.3-0.1,8.1C319.4,115.8,320,116.5,320.8,117.1z"/>
	
		<linearGradient id="SVGID_00000041267581583028789600000011209655301643842954_" gradientUnits="userSpaceOnUse" x1="313.4072" y1="114.6919" x2="306.5143" y2="64.3016">
		<stop  offset="0" style="stop-color:#FDC38B"/>
		<stop  offset="1" style="stop-color:#FDA37D"/>
	</linearGradient>
	<path style="fill:url(#SVGID_00000041267581583028789600000011209655301643842954_);" d="M327.3,99.4c-3.3,7.1-16.5,15.4-23.2,16.5
		c-1.8,0.3-3.8-0.5-5.8-1.8c0,0,0,0,0,0c-5-3.5-9.7-10.6-10-12.2c-0.3-2.3,3-8.7,3.1-11.2c0.1-2.6-1.5-9.1-0.8-12.5c0,0,0,0,0,0
		c0.7-3.5,10.1-12.2,17.6-13.9c7.5-1.7,19.8,1.2,22,5.2C332.4,73.4,329.4,95,327.3,99.4z"/>
	<path class="st2" d="M327.3,99.4c-3.3,7.1-16.5,15.4-23.2,16.5c-1.8,0.3-3.8-0.5-5.8-1.8c0.4,0,10.6,0.5,19.1-8.2
		c8.6-8.9,7.1-28.5,4.5-31.8c-2.6-3.4-9.6-3.4-18.5-2.5c-8.6,0.9-12.6,6.2-12.9,6.5c0.7-3.5,10.1-12.2,17.6-13.9
		c7.5-1.7,19.8,1.2,22,5.2C332.4,73.4,329.4,95,327.3,99.4z"/>
	<path class="st10" d="M309.1,91.9c0,0,1.9-10.5,6-10.3c4.1,0.3,4.2,8.1,4.2,8.1s-2.1,3-5.1,2.9C311.2,92.5,309.1,91.9,309.1,91.9z"
		/>
	<path class="st10" d="M297.2,92.2c0,0,0.3-9-2.8-8.9c-3.1,0.1-3,8.5-3,8.5s0.7,0.9,2.3,0.9C295.4,92.6,297.2,92.2,297.2,92.2z"/>
	<path class="st2" d="M318.7,90.6c0,0-1.2,0.5-4.1,1.1c-2.6,0.5-4.1,0.6-4.1,0.6s2.7,1,4.4,0.8C316.6,92.9,318.7,90.6,318.7,90.6z"
		/>
	<path class="st2" d="M291.7,92.2c0,0,0.3,0.1,2,0.2c1.7,0.1,3.5-0.2,3.5-0.2s-2.2,1-3.7,1.2C292,93.5,291.7,92.2,291.7,92.2z"/>
	
		<linearGradient id="SVGID_00000071541791459285207160000014523342755410355619_" gradientUnits="userSpaceOnUse" x1="312.3748" y1="86.8493" x2="318.3051" y2="86.8493">
		<stop  offset="0" style="stop-color:#A43113"/>
		<stop  offset="1" style="stop-color:#6F160D"/>
	</linearGradient>
	<path style="fill:url(#SVGID_00000071541791459285207160000014523342755410355619_);" d="M318.3,86.8c0,2.4-1.3,4.3-3,4.3
		c-1.6,0-3-1.9-3-4.3c0-2.4,1.3-4.3,3-4.3C317,82.5,318.3,84.5,318.3,86.8z"/>
	<path class="st1" d="M317.4,86.3c0,1.7-0.9,3.1-2.1,3.1c-1.2,0-2.1-1.4-2.1-3.1s0.9-3.1,2.1-3.1C316.5,83.3,317.4,84.6,317.4,86.3z
		"/>
	
		<linearGradient id="SVGID_00000047768066027661764120000015712330999520070547_" gradientUnits="userSpaceOnUse" x1="293.2965" y1="87.8574" x2="297.218" y2="87.8574">
		<stop  offset="0" style="stop-color:#A43113"/>
		<stop  offset="1" style="stop-color:#6F160D"/>
	</linearGradient>
	<path style="fill:url(#SVGID_00000047768066027661764120000015712330999520070547_);" d="M297.2,90.7c0,0.1-0.1,0.2-0.1,0.2
		c-0.4,0.7-0.9,1.2-1.5,1.2c-1.2,0-2.2-1.9-2.2-4.3c0-1.6,0.4-2.9,1.1-3.7c0.3-0.4,0.7-0.6,1.2-0.6c0.2,0,0.5,0.1,0.7,0.2l0,0
		c0.3,0.5,0.5,1.2,0.6,1.9c0.1,0.6,0.2,1.1,0.2,1.7C297.2,88.7,297.2,89.9,297.2,90.7z"/>
	<path class="st1" d="M297.1,87.4c0,0.6-0.1,1.2-0.3,1.7c-0.3,0.8-0.8,1.3-1.3,1.3c-0.9,0-1.6-1.4-1.6-3.1c0-1.4,0.5-2.6,1.2-2.9
		c0.1-0.1,0.3-0.1,0.4-0.1c0.6,0,1.1,0.6,1.3,1.4C297,86.3,297.1,86.9,297.1,87.4z"/>
	<path class="st1" d="M297.2,90.7c0,0.6,0,1,0,1s0-0.3-0.1-0.8c-0.1-0.5-0.1-1.1-0.3-1.8c-0.3-1.8-0.8-4-1.7-4.7
		c-0.1-0.1-0.3-0.2-0.5-0.2c-0.1,0-0.2,0-0.3,0c-2.1,0.3-2.9,7.6-2.9,7.6s-0.8-9.1,3.2-9.1c0.7,0,1.2,0.4,1.6,1.1l0,0
		c0.3,0.5,0.5,1.2,0.6,1.9c0.1,0.6,0.2,1.1,0.2,1.7C297.2,88.7,297.2,89.9,297.2,90.7z"/>
	<path class="st10" d="M314.2,87.8c0,0.7-0.6,1.2-1.2,1.2c-0.7,0-1.2-0.6-1.2-1.2c0-0.7,0.6-1.2,1.2-1.2
		C313.6,86.6,314.2,87.1,314.2,87.8z"/>
	<path class="st10" d="M294.5,88.6c0,0.7-0.6,1.2-1.2,1.2c-0.7,0-1.2-0.6-1.2-1.2c0-0.7,0.6-1.2,1.2-1.2
		C294,87.3,294.5,87.9,294.5,88.6z"/>
	<path class="st1" d="M309.1,91.1c0,0,2.2-9.1,6.2-8.4c4,0.8,4.1,6.9,4.1,6.9s1.3-8.8-4.5-8.8C309.8,81,309.1,91.1,309.1,91.1z"/>
	<path class="st1" d="M309.6,77l0.3-3.7l0.4,1.6l0.3-1.6c0,0,4.6,0.4,6.7,1.5c2.1,1.1,3.3,2.5,3.3,2.5l-0.5,1.9c0,0-2.2-1.7-4.7-2.1
		C312.8,76.7,309.6,77,309.6,77z"/>
	<path class="st1" d="M299.4,77.4v-3.7l-0.6,0.7l-0.4-1.1c0,0-2.4,0.6-4.8,2.4c-2.4,1.8-3,3.7-3,3.7v2c0,0,2.8-2.1,4.7-3.1
		C297.2,77.4,299.4,77.4,299.4,77.4z"/>
	<path class="st1" d="M296.3,103.8c0,0,5.9,1.1,9.9-0.2c4.2-1.4,6.3-4.7,7.7-6c0.6-0.6,0.8,0.3,0.8,0.3s-4,5.5-8.7,6.6
		s-9.6-0.3-9.6-0.3L296.3,103.8z"/>
	<path class="st1" d="M312.1,95.7c0,0,1.6-0.2,2.6,1.2c1,1.3,1.8,2.4,1.8,2.4s-1.8,0.2-2.6-0.9C313.1,97.3,312.5,96,312.1,95.7z"/>
	<path class="st2" d="M298,96.7c0,0,2.8,0.5,5.3,0.2c2.5-0.3,3.8-0.9,3.8-0.9s-0.3,1.7-1.2,2c-0.8,0.3-2-0.4-2-0.4s-0.9,1.2-2.7,1.3
		C299.4,98.9,298,96.7,298,96.7z"/>
	<path class="st2" d="M327.1,92.2c0,0,3.7-3.1,7.1-4.8c3.5-1.8,6.1-2.2,6.9-1.7c0.8,0.5,0.2,7.1-2,10.1c-2.2,2.9-8.5,7.3-10.5,6.2
		c-2.1-1-2.3-2.4-2.3-2.4L327.1,92.2z"/>
	<path class="st6" d="M328.4,96c0,0,5-4.3,7.8-5.9c2.8-1.6,3.3-1.8,3.3-1.8s-2.1,2.4-4.2,4.3C333.2,94.5,328.4,96,328.4,96z"/>
	<path class="st6" d="M332.1,93.8c0,0-0.9,2.3,0,3.2c0.9,0.9,3.1,0.3,3.1,0.3s-2.7,1.4-4.1,0.7c-1.5-0.7-0.4-3.3-0.4-3.3L332.1,93.8
		z"/>
	
		<linearGradient id="SVGID_00000007422644660982025770000014278372369570050236_" gradientUnits="userSpaceOnUse" x1="281.181" y1="66.6116" x2="342.164" y2="66.6116">
		<stop  offset="0" style="stop-color:#7D1831"/>
		<stop  offset="1" style="stop-color:#5C0000"/>
	</linearGradient>
	<path style="fill:url(#SVGID_00000007422644660982025770000014278372369570050236_);" d="M334.2,87.3c0,0-3.8,2.2-5.8,5.3l-1.1,0.7
		c0,0,0.6-13.6,0.6-19c0-5.4-2.4-7.4-2.4-7.4s-2.9,1.5-6.8,1.8c-3.8,0.3-4.8-1.3-4.8-1.3s-5.4,2.8-8.4,2.8c-2.9,0.1-3.9-1.3-3.9-1.3
		s-4.9,5.1-8.8,5.6c-3.6,0.4-6.7-0.8-7.4-2.7c-0.1-0.2-0.1-0.3-0.1-0.5c-0.2-2.1,0.4-2.9,0.4-2.9s-3.8-1.3-4.3-5.7
		c-0.5-4.4,1.7-6.1,1.7-6.1s-1.2-6.1,3.3-8.7c4.5-2.6,11.7-2,11.7-2s3.3-3.2,7.5-4.9c1.6-0.7,3.3-1.1,5.1-1.1
		c6.4,0.1,8.9,5.2,8.9,5.2s3.5-2.5,6.3-0.6c2.8,1.9,2.6,4.4,2.6,4.4s3.6,0.2,6,2.8c2.5,2.6,0,6.5,0,6.5l0.1,0
		c0.7,0.5,6.5,4.4,7.5,8.5C343.2,71,334.2,87.3,334.2,87.3z"/>
	<path class="st14" d="M323.3,50.5c-1.2,2-6.7,4.9-6.7,4.9s-0.9,6.1-4.9,7.4c-3.9,1.2-10.5,0-10.5,0s-1.5,3.4-6.2,6.3
		c-2.8,1.8-6.9,2.5-9.7,2.7c-0.1-0.2-0.1-0.3-0.1-0.5c-0.2-2.1,0.4-2.9,0.4-2.9s-3.8-1.3-4.3-5.7c-0.5-4.4,1.7-6.1,1.7-6.1
		s-1.2-6.1,3.3-8.7c4.5-2.6,11.7-2,11.7-2s3.3-3.2,7.5-4.9c0,0,0,0,0,0c8.2-0.3,11.1,3.7,11.1,3.7S324.5,48.5,323.3,50.5z"/>
	<path class="st1" d="M334.2,87.3c0,0-3.8,2.2-5.8,5.3l-1.1,0.7c0,0,0.6-13.6,0.6-19c0-5.4-2.4-7.4-2.4-7.4s2.6-0.8,4.8-2.5
		c2.2-1.8,4.2-6.4,4.2-6.4l0.1,0c0.7,0.5,6.5,4.4,7.5,8.5C343.2,71,334.2,87.3,334.2,87.3z"/>
	
		<linearGradient id="SVGID_00000011031185975466486030000013774489301893602990_" gradientUnits="userSpaceOnUse" x1="313.0685" y1="235.6575" x2="313.0685" y2="119.1651">
		<stop  offset="0" style="stop-color:#C4F7FD"/>
		<stop  offset="1" style="stop-color:#A6DDFF"/>
	</linearGradient>
	<path style="fill:url(#SVGID_00000011031185975466486030000013774489301893602990_);" d="M336.9,220.9c0,0-17.4-0.5-28.7,3.5
		c-4.2,1.5-7.6,3.4-10.3,5.3c-4.6,3.1-7,6-7,6s-0.6-0.4-1-1.4c-0.5-1,0.6-3.9,0.6-5.1c0-0.7-0.1-2.4-0.2-4.2v0c0-0.8,0-1.5-0.1-2.3
		c0-0.5,0-0.9,0-1.3c0.1-2.4,0.8-4.8,0.7-6.6c0-0.6-0.1-1.7-0.2-3.2c0-0.6-0.1-1.2-0.1-2c-0.2-2.8-0.3-6.4-0.3-10.7
		c0-0.4,0-0.8,0-1.2c0-0.6,0-1.2-0.1-1.9c-0.1-3.2-0.4-7.3-0.7-11.7c0-0.6-0.1-1.2-0.1-1.9c-0.2-2.6-0.4-5.4-0.6-7.9
		c-0.1-1-0.2-2-0.3-3c-0.1-0.7-0.1-1.3-0.2-2c-0.3-3.2-0.5-5.9-0.6-7.9c0-0.6-0.1-1.3-0.1-2.2c0-0.6,0-1.2,0-1.8
		c0.1-2.2,0.3-4.9,0.5-7.8c0.1-0.6,0.1-1.2,0.2-1.8c0.3-3.1,0.6-6.3,1-9.4c0.1-0.6,0.1-1.2,0.2-1.8c0.1-0.6,0.2-1.3,0.2-1.9
		c0.8-6.6,1.5-11.7,1.5-11.7l0.5-0.2l2.2-0.7h0l8.5-2.9c0,0,4.9,3.3,9.2,3c4.3-0.3,11.9-3,11.9-3c1.9,1.3,12.2,3.9,12.2,3.9
		s0,0.6,0.1,1.7c0,0.5,0.1,1.2,0.1,1.9c0.1,2.8,0.3,6.9,0.4,11.3c0,0.4,0,0.7,0,1.1c0,0.2,0,0.5,0,0.8c0,2.8,0,5.7-0.1,8.4
		c0,0.7,0,1.3-0.1,1.9c-0.2,4.3-0.6,7.8-1.4,9.4c0,0.1-0.1,0.1-0.1,0.2h0c-0.3,0.6-0.5,1.2-0.8,1.8c-0.4,0.9-0.7,2-1.1,3
		c-0.6,1.8-1.1,3.7-1.6,5.5c-0.2,0.6-0.3,1.2-0.4,1.8c-0.7,3.1-1.1,5.8-1.2,7.3c0,0.3,0,0.7,0.1,1.3c0.1,0.5,0.1,1.2,0.2,1.9
		c0.3,2.3,0.8,5.5,1.4,9c0.1,0.7,0.2,1.4,0.4,2c0.4,2,0.7,4,1.1,5.8c0.1,0.6,0.2,1.2,0.4,1.8c0.5,2.8,1,5.3,1.4,6.9
		c0.2,0.8,0.3,1.4,0.5,1.8c0.1,0.2,0.1,0.4,0.2,0.4c0.7,1.2,3.2,3.5,3.3,5.4C338.8,217.7,336.9,220.9,336.9,220.9z"/>
	
		<linearGradient id="SVGID_00000040573661156553465590000004608471457750099375_" gradientUnits="userSpaceOnUse" x1="342.2857" y1="181.2175" x2="342.2857" y2="123.0774">
		<stop  offset="0" style="stop-color:#C4F7FD"/>
		<stop  offset="1" style="stop-color:#A6DDFF"/>
	</linearGradient>
	<path style="fill:url(#SVGID_00000040573661156553465590000004608471457750099375_);" d="M352.7,176.1c0,0-1.5,0.1-4.1,0.7
		c-1.8,0.4-4,1-6.6,2c-6.3,2.5-6.3,2.5-6.3,2.5s-0.7-4.3-1.5-9c-0.1-0.6-0.2-1.2-0.3-1.9c-0.3-2-0.7-4-1-5.6
		c-0.2-1.3-0.5-2.3-0.6-3.1c-0.1-0.3-0.1-0.5-0.2-0.7c-0.1-0.2-0.1-0.6-0.1-1.2c-0.1-1.7,0.1-4.9,0.4-8.6c0-0.6,0.1-1.3,0.2-1.9
		c0.2-3,0.6-6.3,0.9-9.6c0.1-0.6,0.1-1.2,0.2-1.8c0-0.1,0-0.3,0-0.4c0.5-3.9,0.9-7.5,1.4-10.4c0.1-0.7,0.2-1.4,0.4-2
		c0.1-0.7,0.3-1.4,0.4-1.9c0,0,1.3,0.3,3,0.9h0c0.9,0.3,2,0.6,3.1,1c2.7,1,5.5,2.2,6,3.3c0.4,0.7,0.9,4.2,1.4,8.6
		c0.1,0.6,0.1,1.2,0.2,1.8c0.2,2.1,0.4,4.3,0.6,6.5c0.1,0.6,0.1,1.2,0.2,1.9c0.4,4.2,0.7,8.3,0.9,11.4c0,0.7,0.1,1.3,0.1,1.9
		c0.1,1.5,0.2,2.6,0.2,3.3c0.1,1.6,0.2,3.6,0.4,5.6c0.1,0.6,0.1,1.3,0.2,1.9C352.4,173.8,352.7,176.1,352.7,176.1z"/>
	
		<linearGradient id="SVGID_00000179624037166668366880000003616129133824485551_" gradientUnits="userSpaceOnUse" x1="319.4831" y1="176.7239" x2="319.4831" y2="119.1651">
		<stop  offset="0" style="stop-color:#8BA7FD"/>
		<stop  offset="1" style="stop-color:#95BAFF"/>
	</linearGradient>
	<path style="opacity:0.5;fill:url(#SVGID_00000179624037166668366880000003616129133824485551_);" d="M352.7,176.1
		c0,0-1.5,0.1-4.1,0.7c0,0-3.3-25.3-6.3-31c-1.1-2.1-3.1-4.4-6-6.5c-0.8-0.6-1.7-1.2-2.7-1.8c-5-2.9-11.8-5.2-20.2-5.7
		c-10.3-0.6-18.2,1.2-22.4,2.6c-0.5,0.1-0.9,0.3-1.3,0.4c-1.5,0.5-2.2,0.9-2.2,0.9l-1.2-10.3c2.3-1.5,4.9-2.3,4.9-2.3l11.3-3.8
		c0,0,4.9,3.3,9.2,3c4.3-0.3,11.9-3,11.9-3c1.9,1.3,12.2,3.9,12.2,3.9s10.9,2.9,12.2,5.2c1.2,2.3,3.4,30.9,3.5,35.4
		C351.6,168.1,352.7,176.1,352.7,176.1z"/>
	
		<linearGradient id="SVGID_00000077308159134096034480000015120107985943978430_" gradientUnits="userSpaceOnUse" x1="318.2541" y1="229.623" x2="318.2541" y2="151.3585">
		<stop  offset="0" style="stop-color:#8BA7FD"/>
		<stop  offset="1" style="stop-color:#95BAFF"/>
	</linearGradient>
	<path style="opacity:0.5;fill:url(#SVGID_00000077308159134096034480000015120107985943978430_);" d="M336.9,220.9
		c0,0-17.4-0.5-28.7,3.5c-4.2,1.5-7.6,3.4-10.3,5.3h0c0,0,6.6-6.5,16.2-8.8c9.6-2.2,20.3-3.3,20.2-4.5c-0.1-1.1-3.5-5.8-11.7-3.6
		c-7.9,2.1-16.8,6-17.4,6.3c0.5-0.3,7-4.7,12.1-7.1c5.3-2.5,11.4-3.8,12.3-4.2s-1.5-20-2.4-21c-0.9-1-6.5,2.7-6.8,2.2
		c-0.4-0.5,3.7-6.2,6.7-13.7c2.7-6.9,4.5-21.4,4.8-23.9c-0.1,0.8-0.2,2.7,0.1,5.6c0.3,3.9,1,7.7,1,7.7c-1.8,5.5-3,12-3.1,14.6
		c-0.1,3.6,4.8,29.9,5.5,31.1c0.7,1.2,3.2,3.5,3.3,5.4C338.8,217.7,336.9,220.9,336.9,220.9z"/>
	<path class="st8" d="M300.7,119.8l2.7-1.1c0,0,4,2.1,8.7,2c4.7-0.1,10-2.5,10-2.5l2.5,1.6c0,0-6.9,2.6-13,2.9
		C305.4,123,300.7,119.8,300.7,119.8z"/>
	<path class="st8" d="M309.7,122c0,0-1.6,5.3-2.6,12c-1,6.7-1,10.1-1,10.1h3c0,0-0.3-7.7,0.6-13.3c0.8-5.6,1.6-8.7,1.6-8.7
		L309.7,122z"/>
	<g class="st19">
		<path class="st8" d="M349.5,138.8c-2.3,0.2-5.4,0.5-7.1,0.9c-1,0.2-2.2,0.4-3.5,0.4c-0.8,0-1.7,0-2.6-0.1c-1-0.1-1.9-0.2-3-0.3
			c-1.1-0.1-2.3-0.3-3.5-0.4c-0.8-0.1-1.6-0.2-2.5-0.3c-6.3-0.7-23.5-1.1-28.4-0.4c-2.5,0.4-5.5,0.5-8.1,0.1
			c-0.6-0.1-1.1-0.2-1.6-0.3c-1.3-0.3-2.4-0.8-3.1-1.5c-0.8-0.7-2.6-1.3-4.2-1.7c0.1-0.7,0.1-1.3,0.2-1.8c1.9,0.4,4.1,1.1,5.3,2.2
			c0.5,0.4,1.2,0.8,2.1,1c0.4,0.1,0.9,0.2,1.4,0.3c2.1,0.3,4.9,0.3,7.8-0.1c5.3-0.8,23-0.3,28.8,0.3c0.8,0.1,1.7,0.2,2.5,0.3
			c1.2,0.1,2.4,0.3,3.5,0.4c1,0.1,1.9,0.2,2.7,0.3c2.3,0.2,4.2,0.2,5.6-0.2c1.8-0.5,4.9-0.8,7.3-0.9
			C349.3,137.5,349.4,138.1,349.5,138.8z"/>
	</g>
	<g class="st19">
		<path class="st8" d="M350.2,147.1c-2.1,0.5-5.2,1.1-7.9,1.7c-1.9,0.4-3.6,0.8-5.1,1.2c-0.4,0.1-0.7,0.2-1,0.2
			c-1.6,0.4-3,0.7-3.9,0.9c-0.1,0-0.1,0-0.2,0c-0.3,0.1-0.7,0.1-1.3,0.1c-1.7,0-4.7-0.2-9.5-0.6c-4.5-0.3-10-0.7-15.9-1
			c-8.4-0.4-12.6-0.4-14.8-0.2c-1.1,0.1-1.7,0.2-2.1,0.2c-0.1,0-0.3,0-0.4,0c-1.4-0.1-4.8-0.8-7.3-1.4c0.1-0.6,0.1-1.2,0.2-1.9
			c3.4,0.8,6.7,1.4,7.3,1.4c0,0,0,0,0.1,0c0.5-0.1,1.1-0.2,2.4-0.2c2.3-0.1,6.6-0.2,14.8,0.2c5.9,0.3,11.5,0.7,15.9,1
			c5,0.4,9.4,0.7,10.3,0.5c0.2,0,0.4-0.1,0.7-0.1c1-0.2,2.3-0.5,3.9-0.9c0.2,0,0.4-0.1,0.5-0.1c1.5-0.4,3.3-0.8,5.1-1.2
			c2.8-0.6,6-1.3,8.1-1.8C350.1,145.9,350.2,146.5,350.2,147.1z"/>
	</g>
	<g class="st19">
		<path class="st8" d="M351.3,160.4c-1.9,0.5-4.6,1.1-7.4,1.2c-2.4,0.1-5.2,0.1-7.6,0.1c-0.9,0-1.7,0-2.3,0c-0.7,0-1.3,0-1.7-0.1
			c-0.3,0-0.5,0-0.6-0.1c-0.8-0.1-12.7-0.7-22-0.7c-7.5,0-15.3-0.7-19.2-1.2c-1-0.1-1.8-0.2-2.2-0.3c-0.2,0-0.4-0.1-0.7-0.1
			c-1.8-0.1-5.2,0-7.8,0c0.1-0.6,0.1-1.2,0.2-1.8c2.1-0.1,5.6-0.1,7.6,0c0.4,0,0.7,0,0.9,0.1c0.4,0.1,1.1,0.1,2,0.3
			c3.8,0.4,11.7,1.2,19.2,1.2c8.8,0,20.6,0.5,22.3,0.8c0.1,0,0.1,0,0.2,0c0.2,0,1.2,0.1,2.7,0.1h0c2.2,0,5.6,0,9.1-0.1
			c2.8-0.1,5.5-0.7,7.3-1.2C351.2,159.2,351.2,159.8,351.3,160.4z"/>
	</g>
	<g class="st19">
		<path class="st8" d="M331.3,170.2c-0.2,0.6-0.3,1.2-0.4,1.8c-0.5,0-1,0-1.3,0c-0.7,0-2.1,0.2-3.8,0.4c-4.3,0.5-11,1.3-18.5,1.3
			c-1,0-2,0-3,0c-7.2-0.2-11.2-1.1-14.1-1.8c-0.5-0.1-1-0.3-1.4-0.4c-0.1,0-0.3-0.1-0.4-0.1c-1.1-0.3-2-0.6-3-0.7
			c-2.9-0.4-6.1-0.2-7.4-0.1c0.1-0.6,0.2-1.2,0.4-1.9c1.6-0.1,4.6-0.3,7.3,0.1c0.9,0.1,1.7,0.3,2.6,0.6c0.3,0.1,0.7,0.2,1,0.3
			c0.3,0.1,0.6,0.2,1,0.3c2.8,0.8,6.8,1.7,14.1,1.9c8.5,0.2,16.5-0.7,21.2-1.2c1.8-0.2,3.1-0.4,4-0.4
			C330,170.2,330.6,170.2,331.3,170.2z"/>
		<path class="st8" d="M352.1,171.1c-1.3,0.3-3.1,0.7-5.4,1c-3.5,0.5-8.6,0.3-12.5,0.1c-0.1-0.6-0.2-1.2-0.3-1.9c0.1,0,0.1,0,0.2,0
			c3.8,0.2,9,0.4,12.4-0.1c2.4-0.3,4.2-0.7,5.4-1C351.9,169.9,352,170.5,352.1,171.1z"/>
	</g>
	<g class="st19">
		<path class="st8" d="M330,182.5c-1.4-0.3-3.6-0.5-6.2-0.2c-1.7,0.2-3.3,0.6-5,1c-3,0.8-6.5,1.6-11.7,1.8c-0.6,0-1.3,0-2,0
			c-5.7,0-12.5-0.6-15.8-1c0-0.6-0.1-1.2-0.1-1.9c3.5,0.4,11.8,1.1,17.9,1c5-0.1,8.3-1,11.3-1.7c1.8-0.4,3.5-0.9,5.3-1.1
			c2.5-0.3,4.7-0.1,6.2,0.1C329.9,181.2,330,181.8,330,182.5z"/>
	</g>
	<g class="st19">
		<path class="st8" d="M331.8,193.5c-1.5-0.5-4.4-1.2-7.4-0.7c-3.3,0.6-12,2.1-21.8,4.2c-2.9,0.6-5.9,0.8-8.5,0.8
			c-1.4,0-2.7-0.1-3.9-0.1c0-0.6,0-1.2-0.1-1.9c3.2,0.3,7.7,0.3,12.1-0.6c9.8-2.1,18.5-3.7,21.8-4.2c2.9-0.5,5.6,0,7.4,0.5
			C331.6,192.2,331.7,192.9,331.8,193.5z"/>
	</g>
	<g class="st19">
		<path class="st8" d="M333.3,201.2c-4.8,0.1-14,0.6-21.3,2.5c-7.9,2.1-17.4,6.1-21.4,7.9c0-0.6-0.1-1.2-0.1-2
			c4.3-1.9,13.4-5.7,21-7.7c7.3-2,16.4-2.5,21.4-2.6C333,200,333.1,200.6,333.3,201.2z"/>
	</g>
	<g class="st19">
		<path class="st8" d="M335.1,210c-4,0.1-12.7,0.6-21.8,2.9c-9.4,2.4-18.9,9-23.1,12.1c0-0.8,0-1.5-0.1-2.3
			c4.6-3.4,13.6-9.4,22.7-11.7c9-2.3,17.6-2.8,21.8-2.9C334.9,209,335,209.6,335.1,210z"/>
	</g>
	<g class="st19">
		<path class="st8" d="M341.9,125c-1.4,0.4-3.7,1.1-5.9,1.7c-0.3,0.1-0.6,0.2-0.9,0.3c-1.6,0.4-3,0.8-3.8,1.1
			c-2.2,0.6-7.1,1.2-13.5,1.2c-2.8,0-5.9-0.1-9.2-0.4c-8.6-0.8-14.5-4.4-16.8-6.1l2.2-0.7h0c2.7,1.7,7.8,4.3,14.8,5
			c11.7,1.1,20-0.2,22-0.7c1-0.3,2.7-0.8,4.6-1.3c0.2,0,0.3-0.1,0.5-0.1c1-0.3,2-0.6,2.9-0.8h0C339.7,124.3,340.8,124.6,341.9,125z"
			/>
	</g>
	<path class="st20" d="M338.8,318.1c0,4.3-1.2,10.2-0.9,13c-1.6,3.4-3.6,7.4-3.6,7.4s0.4-3.5,1.5-14c1.2-10.5-0.7-25.4-0.7-25.4
		l-3.4,3.1c0,0,2.5-12.5,3.4-27.2c0.9-14.8,2.5-37.8-6-45.2c-8.4-7.3-36.7,4.9-37.4,5.1c2.4-2.3,9.4-8.4,19.2-11.3
		c14.8-4.4,25.1-2.6,25.1-2.6s3.4,13.7,3.8,17.9c0.5,4.2-3.2,46-2.6,54.1C337.9,300.9,338.8,313.5,338.8,318.1z"/>
	<path class="st20" d="M311.5,314.4c0.8,5.2,4,31.9,4,31.9l-0.9-0.5l-9.7-3.6l-0.2,0c0,0,5.9-23,5.2-26.7
		c-0.7-3.7-3.8-22.7-3.8-22.7l-5.9,2.6c0,0,2.1-2.2,3.9-7.2c1.8-5,5.3-24.3,5.5-29.8c0.2-5.4-2.6-12.3-2.6-12.5
		c0.2,0.1,3.3,1.7,5,4.7c1.7,3,2.7,9.3,2.7,9.3s-5.1,20.8-6.2,25.5C307.3,290.3,310.7,309.2,311.5,314.4z"/>
	<path class="st1" d="M285.9,356.6c0,0,3.8-13.6,5-14.3c1.1-0.7,9.6-2.2,13-2.2c3.5,0,11.7,6.4,12.5,7.3c0.8,0.9-1.5,13.9-2.4,14.8
		c-1,0.8-1.7,0.5-1.7,0.5s-5.1-4.9-10.3-7C296.9,353.6,285.9,356.6,285.9,356.6z"/>
	<path class="st21" d="M314.6,366c0,0-1.6-10.8-1.3-12.3c0.3-1.5,7.9-5.2,12.7-5.2c6.5,0,15.2,3.3,16.5,5.9
		c0.2,0.4,0.6,10.3-0.2,13.9c-0.6,2.5-3,3.3-3,3.3s-7.4-10.8-13.8-10.4C322,361.5,314.6,366,314.6,366z"/>
	<path class="st22" d="M314.6,366c0,0-1.6,3-1.3,3.9s0.2,0.8,0.2,0.8s6.2,0.9,12.1,0.9c5.9,0,11.9-2.4,11.9-2.4s-5.3-8.3-12.1-8.9
		C318.5,359.8,314.6,366,314.6,366z"/>
	<path class="st22" d="M285.9,356.6c0,0-2.8,2-5.2,3.5c-2.4,1.5-1.7,4-1.7,4s9.8,1.3,16.7,0c6.9-1.3,13.6-4.1,13.6-4.1
		s-5.7-5.8-12.1-5.7C290.8,354.6,285.9,356.6,285.9,356.6z"/>
	<path class="st23" d="M319.6,296.1c0,0,7.3-1.4,10.5-7c3.2-5.5-0.3-47.2-1.9-50.5c-1.6-3.3-20.4,0.1-20.4,0.1s5.7,6.2,8.1,18.8
		C318.6,271.8,319.6,296.1,319.6,296.1z"/>
	<path class="st23" d="M298.7,276.6c-3.8,6.1-9.8,8.8-12.7,9.8c0.4-5.5,4.2-40.5,5.2-44.5c0.1-0.4,0.2-0.7,0.4-1
		c3.6,1,10.6,2.3,12.2,6.2C305,249.9,303.9,268.3,298.7,276.6z"/>
	<polygon class="st24" points="330,252.3 373.5,235.7 369,202.4 321.3,212.8 	"/>
	<polygon class="st8" points="330,252.3 327.3,252.3 319.6,211.6 367.9,201.9 369,202.4 321.3,212.8 	"/>
	
		<linearGradient id="SVGID_00000165222668390985424880000002935738075305384080_" gradientUnits="userSpaceOnUse" x1="334.551" y1="241.5847" x2="334.551" y2="216.6081">
		<stop  offset="0" style="stop-color:#C4F7FD"/>
		<stop  offset="1" style="stop-color:#A6DDFF"/>
	</linearGradient>
	<polygon style="fill:url(#SVGID_00000165222668390985424880000002935738075305384080_);" points="333.6,241.6 328.1,218.4 
		337.6,216.6 341,238.5 	"/>
	
		<linearGradient id="SVGID_00000096742139533568219230000016991660943245733801_" gradientUnits="userSpaceOnUse" x1="368.4584" y1="230.1213" x2="368.4584" y2="211.6116">
		<stop  offset="0" style="stop-color:#C4F7FD"/>
		<stop  offset="1" style="stop-color:#A6DDFF"/>
	</linearGradient>
	<polygon style="fill:url(#SVGID_00000096742139533568219230000016991660943245733801_);" points="369,230.1 370.5,229.6 
		368.1,211.6 366.4,212.4 	"/>
	
		<linearGradient id="SVGID_00000125573748804009361260000009556258112358620038_" gradientUnits="userSpaceOnUse" x1="352.5128" y1="247.2248" x2="344.7135" y2="190.208">
		<stop  offset="0" style="stop-color:#FDC38B"/>
		<stop  offset="1" style="stop-color:#FDA37D"/>
	</linearGradient>
	<path style="fill:url(#SVGID_00000125573748804009361260000009556258112358620038_);" d="M359.3,241.2c-0.5,1.2-1.5,0.9-1.5,0.9
		s-0.1,1.5-0.9,1.8c-1.2,0.3-1.4-0.3-1.4-0.3s0.1,1.5-1,2.3c-0.9,0.6-1.6,0-1.6,0s-1.4,1.5-2.9,1.7s-3,0-3,0s2.5-1.6,2.8-3.2
		c0.3-2.4-1.5-6.4-1.5-6.4s-1.2,5-1.2,7.6c-0.1,2.6-3,2-3.4,2c-0.4,0.1,0-0.6,0.3-2.2c0.3-1.6,0.9-10.4,2.3-14.3
		c1.4-3.9,3.1-7.7,2.2-11c-0.9-3.3-5.4-14.7-6.1-18c-0.2-1.1-0.5-3.3-0.8-5.3l0,0c-0.2-1.2-0.3-2.3-0.4-3.1
		c-0.1-0.9-0.2-1.4-0.2-1.4l11.7-3l1.1-0.3c0,0,1.2,9.6,1.2,13.6c0,4-1.9,17.6-1.9,18.9c0,0.6,1.5,4.1,3,8.1c0,0,0,0,0,0
		C357.8,234.5,359.8,240,359.3,241.2z"/>
	<path class="st2" d="M355.9,229.6c-0.1-0.2-2.5-3.4-3.3-6.2c-0.7-2.9,0.9-17.9-1.4-21.5c-2.3-3.6-9.8-5.1-9.8-5.1l0,0
		c-0.2-1.2-0.3-2.3-0.4-3.1l11.5-4.4l1.1-0.3c0,0,1.2,9.6,1.2,13.6c0,4-1.9,17.6-1.9,18.9C352.9,222,354.4,225.6,355.9,229.6z"/>
	<path class="st8" d="M339.3,194.9c-1.7,0.5-3-3.5-3.3-6.7c-0.3-3.8-1.4-7.8-1.2-8.3c0.2-0.5,4.3-1.9,10.3-3.2
		c6.1-1.3,10.4-1.4,10.4-1c0,0.4,0.9,5.6,1.2,8.6c0.3,3,0.7,5.1,0.3,5.9C356.6,190.9,340.3,194.6,339.3,194.9z"/>
	<path class="st28" d="M338.6,122.5l2,2.1c0,0-2.9,8.7-4.7,19.6c-1.7,10.9-2.5,23.9-2.5,23.9s-2.2-16-1.6-22.3
		C332.5,139.3,338.6,122.5,338.6,122.5z"/>
	<path class="st1" d="M331.9,175.5c0,0-2.4-13.5-2.6-29c-0.2-16.8,1.7-25.4,1.7-25.4l7.7,1.5c0,0-3.1,14.8-4.7,25.4
		s-0.5,20.1-0.5,20.1L331.9,175.5z"/>
	<path class="st28" d="M331.9,175.1c0,0,1.1,4.9-1.3,12.5c-2.4,7.6-5,9.9-5,9.9l5.7,1.9c0,0,3.3-10.6,3.3-16
		C334.5,178,331.9,175.1,331.9,175.1z"/>
</g>
<g>
	<path class="st29" d="M123.1,233.4h3.5c0,0,2.5-9.2,3.6-20.4c1.2-11.1,1.8-19.2,1.8-19.2l-1.8-1.2L123.1,233.4z"/>
	<path class="st30" d="M96.6,232.1c0,0,8.7,0.8,15.4,0.8c6.7-0.1,11.2,0.5,11.2,0.5s2.7-8.4,5-22.3c2.3-13.9,2.2-18.5,2.2-18.5
		s-5.5,0.8-13.6,0.9c-8.2,0.1-23.3,1.2-23.3,1.2L96.6,232.1z"/>
	<path class="st31" d="M119,193.5c0,0-6.9,10-10.1,18.9s-2.9,17.1-2.9,17.1l-9.8,1.3l-3.5-11.2l6.8-15.9l10.8-9.9L119,193.5z"/>
	
		<linearGradient id="SVGID_00000158720905621630947620000009221530157051807622_" gradientUnits="userSpaceOnUse" x1="54.7699" y1="367.9861" x2="76.434" y2="367.9861" gradientTransform="matrix(-1 0 0 1 116.0322 0)">
		<stop  offset="0" style="stop-color:#DDF8FD"/>
		<stop  offset="1" style="stop-color:#8290C5"/>
	</linearGradient>
	<path style="fill:url(#SVGID_00000158720905621630947620000009221530157051807622_);" d="M61.3,368.2v3.5c0,0-8.2,2.6-14.5,0.6
		c-5.3-1.7-7.1-9.4-7.1-9.4L61.3,368.2z"/>
	
		<linearGradient id="SVGID_00000016760477928065422270000016718002905858081183_" gradientUnits="userSpaceOnUse" x1="-14.6834" y1="367.8181" x2="25.2479" y2="367.8181" gradientTransform="matrix(-1 0 0 1 116.0322 0)">
		<stop  offset="0" style="stop-color:#DDF8FD"/>
		<stop  offset="1" style="stop-color:#8290C5"/>
	</linearGradient>
	<path style="fill:url(#SVGID_00000016760477928065422270000016718002905858081183_);" d="M130.7,366v2.8c0,0-4.7,1.9-15.6,1.7
		c-10.8-0.2-24.4-2.2-24.4-2.2l0.1-3.2L130.7,366z"/>
	
		<linearGradient id="SVGID_00000127011255130027687820000005077413063022805897_" gradientUnits="userSpaceOnUse" x1="12.211" y1="235.1445" x2="10.7459" y2="224.4339" gradientTransform="matrix(-1 0 0 1 116.0322 0)">
		<stop  offset="0" style="stop-color:#FDC38B"/>
		<stop  offset="1" style="stop-color:#FDA37D"/>
	</linearGradient>
	<path style="fill:url(#SVGID_00000127011255130027687820000005077413063022805897_);" d="M111.9,232.9c0,0-3.1,0.4-3.8-0.9
		c-0.7-1.3-0.5-6.5-1.6-7.3c-1.1-0.8-1.6,1.8-1.6,1.8s-0.8-2.3-1.5-2.3c-0.6,0-1.5,2.3-1.5,2.3s-0.7-1.6-1.4-1.5
		c-0.7,0.1-1.6,5.2-1.6,5.2s-0.5-3-1.3-3.4c-0.7-0.4-1.2,5.7-0.7,6.8s2.2,0.4,2.2,0.4s0.5,0.7,1.6,0.7c1,0,1.6-1,1.6-1
		s0.5,0.8,1.4,0.7c0.7-0.1,1.6-1,1.6-1s0.7,0.8,2.4,0.8C109.3,234.2,111.9,232.9,111.9,232.9z"/>
	<path class="st8" d="M72.2,244.3c0,0,7.2,20.3,8.2,32.5c1,12.2-1,20.5,0.9,33.6c1.8,13.1,9.1,28.5,9.5,32.1c0.5,3.7-3.1,7.2-2,9.7
		c1.1,2.5,2,2.7,2,2.7s7.6,0.1,11-1.3c3.4-1.4,4.8-2.3,3.8-3.4c-0.9-1.1-4.6-2.2-2.9-4.6c1.7-2.5,1.4-1.5-0.5-3.5
		c-1.8-2-3.6-40.4-2.9-66.2c0.7-25.8-2.5-57-2.5-57s-22.3,13.9-22.7,16.4C73.8,237.9,72.2,244.3,72.2,244.3z"/>
	
		<linearGradient id="SVGID_00000047782551057919692270000002952491657189387680_" gradientUnits="userSpaceOnUse" x1="49.2693" y1="354.9804" x2="49.2693" y2="201.8973" gradientTransform="matrix(-1 0 0 1 116.0322 0)">
		<stop  offset="0" style="stop-color:#754A86"/>
		<stop  offset="1" style="stop-color:#3E0033"/>
	</linearGradient>
	<path style="fill:url(#SVGID_00000047782551057919692270000002952491657189387680_);" d="M36.7,348.6c0.3,1.2,2.8,1.4,2.5,3.2
		c-0.3,1.8,0.3,3.1,0.3,3.1s3.8,0.2,8.3,0c1.3,0,2.4-0.2,3.3-0.5c0,0,0,0,0,0c2.1-0.6,3.1-1.6,2.9-2.6c-0.3-1.4-1.8-2.1-0.5-3.7
		c1.4-1.5-0.3-4.3-0.2-7.2c0.2-2.9,10.1-40.6,14.6-60.3c4.5-19.7,8.9-36.3,11.7-42.7c2.7-6.3,16-14.1,16.6-14.4c0,0,0,0,0,0l0.7-4.5
		l-31.7-17h-9.3c0,0-0.3,3.4-1.9,7.1c-0.4,1-0.9,2-1.6,2.9c-3,4.5-2.2,10.9-2.1,12.3c0.2,1.4,0.8,46-0.3,51.5
		c-1.2,5.5-6.8,20.9-6.6,30.9c0.2,10-0.9,26-1.4,30.4C41.6,341.5,36.4,347.4,36.7,348.6z"/>
	<path class="st36" d="M96.6,105.2c0,0,4.7,4.1,5,7.3c0.3,3.3,3.7,50.9,3.7,50.9s-6.6-23.1-8.9-30.1C94,126.2,96.6,105.2,96.6,105.2
		z"/>
	<path class="st37" d="M80.4,98.6c-2.7-2.4-18.1-6.6-21.6-7.2c-3.5-0.6-8.1-1.3-8.1-1.3l-6.2,0.8c0,0,0,4-0.9,6.2
		c-0.9,2.2-3.7,5.1-4.3,8c-0.6,2.9,0.4,7.3,0.4,7.3l39.2-1.5l6.1-4.2L80.4,98.6z"/>
	<path class="st37" d="M98.9,210.9l5.1-1.3l0.8-5.4c0,0,5.7-6.1,6.2-17.8c0.4-10.6-1.7-12.6-4.8-21.7c-3.1-9.1-11-25.9-11-25.9
		l-5.1,30L98.9,210.9z"/>
	<path class="st2" d="M57.5,100c0,0,2.8,3.8,11.5,5c6.9,1,11.8-2.1,11.8-2.1s-1.7-0.6-3.2-1.5c0,0,0,0,0,0c-1-0.5-1.9-1.2-2.4-1.9
		c-0.2-0.3-0.4-0.6-0.6-0.9l0,0c-0.7-1.1-0.7-1.3-0.7-1.3l-6.7-4.5l-5.4-3.6c0,0,0.8,4.7,0.5,6.7c-0.2,1.1-2,2.5-3.6,3.5
		C57.5,100,57.5,100,57.5,100z"/>
	<path class="st6" d="M58.7,99.3c0,0,5.3,2.4,10.7,2.5c5.2,0.1,7.9-0.4,8.1-0.4c-1-0.5-1.9-1.2-2.4-1.9c-0.2-0.3-0.4-0.6-0.6-0.9
		l0,0l-7.4-5.8l-5.4-3.6c0,0,0.8,4.7,0.5,6.7C62.2,97,60.3,98.4,58.7,99.3z"/>
	
		<linearGradient id="SVGID_00000139986814595238002080000013927402436646791861_" gradientUnits="userSpaceOnUse" x1="47.1545" y1="97.9439" x2="39.6614" y2="43.1651" gradientTransform="matrix(-1 0 0 1 116.0322 0)">
		<stop  offset="0" style="stop-color:#FDC38B"/>
		<stop  offset="1" style="stop-color:#FDA37D"/>
	</linearGradient>
	<path style="fill:url(#SVGID_00000139986814595238002080000013927402436646791861_);" d="M54,66.8c0,0,0.5,9,3.2,14.5
		c2.8,5.5,8.4,13.6,10.1,15.3c1.5,1.5,7.6,2.5,10.4,1.7c1.9-0.6,13.2-11,14-14.3c0.8-3.3-0.3-8-0.4-12.4c-0.1-3.2,1.9-8.9,2.7-12.4
		l0,0c0.3-1.1,0.4-2,0.4-2.5c0-0.1,0-0.2-0.1-0.3c-0.7-1.4-7.9-13.5-25.3-14c-2-0.1-3.8,0.1-5.3,0.5C51.9,45.9,53.2,60.7,54,66.8z"
		/>
	<path class="st2" d="M54,66.8c0,0,0.5,9,3.2,14.5c2.8,5.5,8.4,13.6,10.1,15.3c1.5,1.5,7.6,2.5,10.4,1.7c0,0-8.6-0.7-10.6-4.3
		c-2-3.6-7.2-13.7-7.5-23.2C59.4,65.4,61,53.8,68.7,53c7.7-0.8,25.3,6.2,25.3,6.2l0,0l1-1.9l-0.6-0.6l-5.8-6.1l-24.9-7.6
		C51.9,45.9,53.2,60.7,54,66.8z"/>
	<path class="st10" d="M83.7,73.6c-0.2,1.3,5.3,3.1,7.2,1.1c1-3.6-0.2-7.6-2.4-8.5S84.1,71.4,83.7,73.6z"/>
	<path class="st10" d="M64.7,68.7c0,1.3,0.8,2.8,2.9,3.9c2.2,1.2,6.7,0.4,6.6-1.1c0-1.2-0.5-7.9-4-8.9
		C66.8,61.6,64.7,68.2,64.7,68.7z"/>
	
		<linearGradient id="SVGID_00000007408222952378933360000015072039794614680742_" gradientUnits="userSpaceOnUse" x1="43.5828" y1="67.6728" x2="49.2344" y2="67.6728" gradientTransform="matrix(-0.9967 -8.130000e-02 -8.130000e-02 0.9967 120.7474 3.6526)">
		<stop  offset="0" style="stop-color:#A43113"/>
		<stop  offset="1" style="stop-color:#6F160D"/>
	</linearGradient>
	<path style="fill:url(#SVGID_00000007408222952378933360000015072039794614680742_);" d="M66.2,67.1c-0.2,2.9,0.8,5.3,2.4,5.5
		c1.6,0.1,3-2.1,3.2-5s-0.8-5.3-2.4-5.5C67.9,62,66.4,64.2,66.2,67.1z"/>
	<path class="st1" d="M66.8,66.7c-0.2,1.9,0.6,3.6,1.6,3.7c1,0.1,2-1.4,2.2-3.4c0.2-1.9-0.6-3.6-1.6-3.7
		C67.9,63.2,67,64.7,66.8,66.7z"/>
	<path class="st1" d="M74.3,71.5c0,0,0.1-10.1-4.2-10.2c-4.3-0.1-5.4,7.4-5.4,7.4s2.7-6.7,5.4-5.5C72.9,64.4,74.3,71.5,74.3,71.5z"
		/>
	
		<linearGradient id="SVGID_00000163795124306086546680000005267169458078538894_" gradientUnits="userSpaceOnUse" x1="26.6702" y1="70.3553" x2="31.7913" y2="70.3553" gradientTransform="matrix(-1 0 0 1 116.0322 0)">
		<stop  offset="0" style="stop-color:#A43113"/>
		<stop  offset="1" style="stop-color:#6F160D"/>
	</linearGradient>
	<path style="fill:url(#SVGID_00000163795124306086546680000005267169458078538894_);" d="M84.2,71.3c0,0.2,0.1,0.3,0.1,0.5
		c0.4,1.7,1.3,2.9,2.4,2.9c1.4,0,2.6-2,2.6-4.4c0-1.2-0.3-2.4-0.8-3.2c-0.5-0.7-1.1-1.2-1.7-1.2C85.6,67.2,84.7,69.5,84.2,71.3z"/>
	<path class="st1" d="M85,70.4c0,1.7,0.8,3,1.8,3c1,0,1.8-1.4,1.8-3c0-1.7-0.8-3-1.8-3C85.8,67.3,85,68.7,85,70.4z"/>
	<path class="st1" d="M83.7,73.6c0.1-0.2,0.3-0.9,0.6-1.8c0.2-0.5,0.4-1,0.6-1.5c0.6-1.2,1.4-2.3,2.3-2.9c0.3-0.2,0.7-0.3,1.1-0.3
		c0.1,0,0.1,0,0.2,0c3.4,0.2,2.4,7,2.4,7.5c0.1-0.5,2.4-8.5-2-9.4c-0.8-0.2-1.5,0.1-2.1,0.7c-1.3,1.2-2.1,3.5-2.6,5.4
		C83.9,72.4,83.8,73.3,83.7,73.6z"/>
	<path class="st1" d="M80.8,87.8c0,0-3.9-1.2-7.1-3.6c-3-2.2-6.7-5.6-6.7-5.6s3.2,9.3,5.7,10.3C75.2,89.9,80.8,87.8,80.8,87.8z"/>
	<circle class="st10" cx="70.9" cy="68.6" r="1.5"/>
	<circle class="st10" cx="89.4" cy="71.5" r="1.5"/>
	<path class="st2" d="M73.6,78.3c0,0,1.6,1.6,4.1,2.5c2.5,0.9,4.3,0.9,4.3,0.9s-2.4,1.6-3.6,1.6c-1.2,0-3.3-2.8-3.3-2.8
		s-0.5,0.6-1.3,0C72.9,79.8,73.6,78.3,73.6,78.3z"/>
	<path class="st41" d="M83.9,70.8c-0.7,4.2,1,8.1,3.9,8.5c2.8,0.5,5.7-2.6,6.4-6.9c0.7-4.2-1-8.1-3.9-8.5
		C87.5,63.4,84.6,66.5,83.9,70.8z"/>
	<path class="st1" d="M83.3,70.7c-0.8,4.8,1.2,9.1,4.4,9.6c3.2,0.5,6.4-2.9,7.2-7.7c0.8-4.8-1.2-9.1-4.4-9.6
		C87.3,62.4,84,65.9,83.3,70.7z M83.9,70.8c0.7-4.2,3.5-7.3,6.4-6.9c2.8,0.5,4.6,4.3,3.9,8.5c-0.7,4.2-3.5,7.3-6.4,6.9
		C85,78.8,83.2,75,83.9,70.8z"/>
	<path class="st41" d="M63.6,67.8c-0.5,4.7,2,8.7,5.5,9.1c3.5,0.4,6.8-3.1,7.2-7.8c0.5-4.7-2-8.7-5.5-9.1
		C67.4,59.7,64.1,63.2,63.6,67.8z"/>
	<path class="st1" d="M62.8,67.8c-0.5,5.3,2.3,9.8,6.2,10.2c4,0.4,7.6-3.5,8.2-8.8C77.8,64,75,59.4,71,59
		C67,58.6,63.4,62.5,62.8,67.8z M63.6,67.8c0.5-4.7,3.7-8.2,7.2-7.8c3.5,0.4,6,4.4,5.5,9.1c-0.5,4.7-3.7,8.2-7.2,7.8
		C65.6,76.6,63.2,72.5,63.6,67.8z"/>
	<polygon class="st1" points="83.8,69.8 76.9,68.3 76.7,69.5 83.6,70.4 	"/>
	<polygon class="st1" points="63.9,63.9 51.5,65.6 52.3,66.4 63.6,65.5 	"/>
	<path class="st10" d="M78.9,87.4c0,0-2.3,0.3-4.4-0.2c-2.1-0.5-6.6-7.5-6.6-7.5S72.9,85,78.9,87.4z"/>
	<path class="st1" d="M75.8,55.9l0.7-5.2l-1.5,2.1v-2.5c0,0-4.2,0.1-8.5,2c-4.3,1.9-5.5,5.3-5.5,5.3l1.2,1.6c0,0,2.1-1.6,5.8-2.9
		C71.6,55.1,75.8,55.9,75.8,55.9z"/>
	<path class="st1" d="M93.6,63.5c0,0-1.7-2.7-4.2-4.5c-2.5-1.8-3.1-2.1-3.1-2.1l0.5-4.5l0.5,2.4l0.4-2.2c0,0,1.6,0.8,4,3.8
		c2.3,3,2.7,5.5,2.7,5.5L93.6,63.5z"/>
	<path class="st2" d="M55.7,70c0,0-7.6-10.7-10.9-10.4s0.4,16.9,5.4,18.4c5,1.5,7.4-0.4,7.4-0.4L55.7,70z"/>
	
		<linearGradient id="SVGID_00000108272919459054631730000006583611593200909219_" gradientUnits="userSpaceOnUse" x1="11.5562" y1="51.1111" x2="67.7792" y2="51.1111" gradientTransform="matrix(-1 0 0 1 116.0322 0)">
		<stop  offset="0" style="stop-color:#A43113"/>
		<stop  offset="1" style="stop-color:#6F160D"/>
	</linearGradient>
	<path style="fill:url(#SVGID_00000108272919459054631730000006583611593200909219_);" d="M48.3,49.4c0,0.8,0,1.6,0.1,2.4
		c0.1,1,0.2,2,0.3,3c0.1,0.5,0.2,0.9,0.2,1.4c0.1,0.8,0.2,1.5,0.4,2.1c0.9,5.1,1.2,5.3,1.2,5.3s1.6,2.6,3.1,5.3
		c1.2,2.2,2.2,4.3,2.2,4.3l0.8,0.2c0,0-0.6-6.2,0-14.3c0.1-1.5,0.4-3,0.7-4.2c0.2-0.6,0.4-1.2,0.6-1.8c0.7-2,1.6-3.6,2.4-4.7
		c0.8-1.2,1.4-1.8,1.4-1.8s11.6,1.9,22.2,5.9c10.6,4,16.6,11.5,16.6,11.5l-4.6-8.7l-2.6-5l11.4,8.7c0,0-2.3-8.2-9-16.2
		c-0.7-0.8-1.5-1.6-2.3-2.4c-2.3-2.3-5-4.5-8.2-6.4c-0.3-0.2-0.6-0.3-0.8-0.5c-1.6-0.9-3.2-1.6-4.9-2.2c-5.6-2-11.1-2.5-15.7-2.2
		c-5.5,0.3-9.8,1.6-11.5,2.4c-0.2,0.1-0.4,0.2-0.5,0.3c-0.4,0.3-0.8,1-1.2,2.1C49.2,37.2,48.2,43.5,48.3,49.4z"/>
	<path class="st6" d="M53.5,74.7c0,0-1.2-3.7-4-7.6c-2.8-3.9-4.3-4.8-4.3-4.8s2.1,2.8,4.1,7C51.4,73.5,53.5,74.7,53.5,74.7z"/>
	<path class="st6" d="M50.6,69.7c0,0-0.7,2.2-2,2.1c-1.3-0.1-2.6-2.1-2.6-2.1s1.2,2.8,3.3,3.1c2.1,0.3,1.9-1.3,1.9-1.3L50.6,69.7z"
		/>
	<path class="st43" d="M61.6,46.4c0.5-0.1,8.3-2.5,16.4-3.5c6.4-0.8,14.2-0.4,17.5-0.1c-0.7-0.8-1.5-1.6-2.3-2.4
		c-3.3-0.1-9.7,0-15.5,1.1C69.7,42.9,62.1,46.2,61.6,46.4z"/>
	<path class="st43" d="M61.6,46.4C62,46,69.3,38.9,76.7,36c3.4-1.4,5.8-2.1,7.4-2.5c-1.6-0.9-3.2-1.6-4.9-2.2
		c-1.3,0.7-3.7,2-6.8,4.3C68,38.9,62,46,61.6,46.4z"/>
	<path class="st43" d="M50.4,33.9C51,35,52,36.7,53.5,39c2.8,4.6,7.2,6.9,8,7.3c-0.7-0.4-4.4-2.7-6.6-7.4c-1.4-2.9-2.3-5.6-2.7-7.5
		c-0.2,0.1-0.4,0.2-0.5,0.3C51.2,32,50.8,32.8,50.4,33.9z"/>
	<path class="st43" d="M48.3,49.4c0,0.8,0,1.6,0.1,2.4c0.8-0.5,1.8-1.1,3.2-1.5c4.2-1.3,8.7-2,8.7-2s-5.5-0.7-9.5,0.4
		C49.7,48.8,48.9,49.1,48.3,49.4z"/>
	<path class="st43" d="M48.9,56.1c0.1,0.8,0.2,1.5,0.4,2.1c0.7-0.5,1.9-1.3,3.9-2.2c2.1-1,3.5-1.2,4.1-1.3c0.2-0.6,0.4-1.2,0.6-1.8
		c-1.3,0.2-4.2,0.9-6.3,1.8C50.2,55.3,49.4,55.8,48.9,56.1z"/>
	<path class="st44" d="M63.5,29.1c0.1,2.8,0.9,8.2,5.5,13.3c5.6,6.2,22.1,11.4,26.7,12.8l-2.6-5l11.4,8.7c0,0-2.3-8.2-9-16.2
		c-0.7-0.8-1.5-1.6-2.3-2.4c-2.3-2.3-5-4.5-8.2-6.4c-0.3-0.2-0.6-0.3-0.8-0.5c-1.6-0.9-3.2-1.6-4.9-2.2
		C73.7,29.2,68.2,28.8,63.5,29.1z"/>
	<path class="st45" d="M50.2,201c-0.5,1.5,14.1,1.2,20,5.4c5.9,4.3,9.8,13.1,13.1,13.7c3.3,0.6,16-1.6,16-1.6s-0.4-3.5-0.6-8.5
		c-0.2-5.1-2-22.8-3-33c-1-10.1,0.8-28.4,0.8-38.1c0-3.8-0.5-9.6-1.2-15.3v0c-1-9-2.4-17.7-2.4-17.7l-8.5-2.4c0,0,0,0,0,0l-6.1-1.7
		c0,0-0.5,1.6-6.5,1.5c-6-0.1-13.8-3.7-13.8-3.7l-9.2,1c0,0,3.2,47.4,4.5,59.1C54.8,171.4,50.7,199.4,50.2,201z"/>
	<path class="st46" d="M50.2,201c-0.5,1.5,14.1,1.2,20,5.4c5.9,4.3,9.8,13.1,13.1,13.7c3.3,0.6,16-1.6,16-1.6s-0.4-3.5-0.6-8.5
		c-0.2-5.1-2-22.8-3-33c-1-10.1,0.8-28.4,0.8-38.1c0-3.8-0.5-9.6-1.2-15.3v0l-0.5-9.7l-1.9-8l-8.5-2.4l-6.1-1.7c0,0-0.5,1.6-6.5,1.5
		c-6-0.1-13.8-3.7-13.8-3.7l-9.2,1c0,0,3.2,47.4,4.5,59.1C54.8,171.4,50.7,199.4,50.2,201z M58.9,199.1c0,0,8.4-1.5,12.7,0
		c4.3,1.5,9.4,7.7,9.4,7.7s-2.8-6.7-10.5-10.6c-7.7-3.9-9.9-10.5-9.6-16c0.3-5.5,8-12.9,8.1-13.6c0-0.7-1.9-5.3-2.5-9.6
		c-1.3-10.6-1.1-22.6,2.7-27.8c2.7-3.8,10-4.2,18.9-5c0,0.6,0.6,1.3,0.8,4.2c0.8,9.4,3.6,57.8,7.2,70.7c3.6,12.9-0.4,17.1-2.9,17.8
		c-2.5,0.7-9.5-0.2-16-7.3C70.6,202.6,58.9,199.1,58.9,199.1z"/>
	
		<linearGradient id="SVGID_00000149345714869335478340000014805143332255433641_" gradientUnits="userSpaceOnUse" x1="9.4801" y1="133.6742" x2="29.4338" y2="133.6742" gradientTransform="matrix(-1 0 0 1 116.0322 0)">
		<stop  offset="0" style="stop-color:#CA0000"/>
		<stop  offset="1" style="stop-color:#A80009"/>
	</linearGradient>
	<path style="fill:url(#SVGID_00000149345714869335478340000014805143332255433641_);" d="M106.6,165.7c0,0-14.6-29.9-15.7-35.8
		c-1.1-5.9-2.4-25.7-3.3-27c-0.9-1.3-0.9-1.3-0.9-1.3s8.8,2.4,10,3.5c1.2,1.1,0.6,24.8,3.4,35.5
		C102.7,151.3,106.1,163.7,106.6,165.7z"/>
	
		<linearGradient id="SVGID_00000085223340134799266540000000898596881518017411_" gradientUnits="userSpaceOnUse" x1="53.2228" y1="145.8793" x2="71.5575" y2="145.8793" gradientTransform="matrix(-1 0 0 1 116.0322 0)">
		<stop  offset="0" style="stop-color:#CA0000"/>
		<stop  offset="1" style="stop-color:#A80009"/>
	</linearGradient>
	<path style="fill:url(#SVGID_00000085223340134799266540000000898596881518017411_);" d="M50.6,137.2c0.1,3.9,0,8.1-0.2,12.3
		c-0.3,4.5-0.7,9.1-1.2,13.5c-0.1,0.9-0.2,1.8-0.3,2.6c-0.1,0.8-0.2,1.5-0.2,2.3c-0.1,1-0.2,1.9-0.3,2.9c0,0,0,0,0,0
		c-0.2,1.7-0.3,3.3-0.5,4.8c-0.6,6.7-0.8,11.8,0.4,14c1.6,3,3.8,4.9,5.5,6c1.6,1,2.8,1.4,2.8,1.4s1.5-12.5,3.6-23.5
		c2.1-11.1,3.9-32.1,1.4-51.9c-0.3-2.7-0.8-5.2-1.3-7.5c-1.2-4.9-2.7-8.7-4.2-11.6c-2.9-5.6-5.7-7.8-5.7-7.8s0.2,1.2,0.4,2.5
		c0.1,1.1,0.2,2.1-0.1,2.5c-0.5,0.8-6.6,1.8-6.1,2.1c0.3,0.2,2.5,6.6,4.2,16.6C49.6,123.8,50.4,130.1,50.6,137.2z"/>
	<path class="st49" d="M56.6,197.1l-0.7,4.8c0,0-4.9-2.8-6.2-4.8c-1.3-2.1-1.4-7.4-1.4-7.4S52.1,195.3,56.6,197.1z"/>
	
		<linearGradient id="SVGID_00000005240819762084909110000013510043604340413578_" gradientUnits="userSpaceOnUse" x1="60.8106" y1="155.2921" x2="88.4927" y2="155.2921" gradientTransform="matrix(-1 0 0 1 116.0322 0)">
		<stop  offset="0" style="stop-color:#CA0000"/>
		<stop  offset="1" style="stop-color:#A80009"/>
	</linearGradient>
	<path style="fill:url(#SVGID_00000005240819762084909110000013510043604340413578_);" d="M27.5,161.8c0.1,7.8,7.4,37.7,11.1,40.9
		c3.7,3.2,13.8,6.1,13.8,6.1l2.8-3.8c0,0-0.3-4.4-1.4-9.3c-0.6-2.7-1.5-5.6-2.7-8.1c-2.1-4.1-2.9-8.8-3.2-12
		c-0.2-2.2-3.4-13.1,2.5-26.1c1.1-2.4,1.2-4.7,1.2-4.7c1.1-4.5,0.1-16.3-1.6-26.4c-1.6-9.3-3.8-17.2-5.5-16.7
		C41,102.9,27.4,153.9,27.5,161.8z"/>
	<path class="st51" d="M104,209.6l0.8-5.4c0,0,8.6-12.7,4.2-28.1c-4.4-15.5-17.1-39.7-20-45.7c-2.9-6-8.6-31.7-8.6-31.7l6.2,3
		c0,0,1.5-0.5,3.7,11.8c2.1,12.3,2.5,21.8,8.4,34.3c5.9,12.5,11,21.7,12.9,32.3c1.9,10.6-5.8,23.8-6.1,24.3
		c-0.3,0.5-0.9,5.2-0.9,5.2H104z"/>
	<path class="st52" d="M27.5,161.8c0.1,7.8,7.4,37.7,11.1,40.9c3.7,3.2,13.8,6.1,13.8,6.1v-0.8c0,0-8.5-8.2-11-11
		c-2.5-2.8-9.8-30.4-9.6-35.5c0.1-5.1,8-39.8,11.1-42.3c1-0.8,3.3-1,5.9-0.9c0.4,0,0.8,0,1.2,0.1c5,0.4,10.5,1.6,10.5,1.6l-0.2-5.9
		l-0.3-7.6l-3.9-4l-5.3-5.4l0,0c0.1,1.1,0.2,2.1-0.1,2.5c-0.5,0.8-6.6,1.8-6.1,2.1C41,102.9,27.4,153.9,27.5,161.8z"/>
	<path class="st51" d="M44.5,90.9c0,0,11.3,7.5,15.4,26.1s1,50.4-0.1,56.7c-1.1,6.4-3.9,28.1-3.9,28.1l1.7-0.9
		c0,0,6.2-32.4,7.4-58.7c1.2-26.3-2.8-37.5-6-43.6c-3.2-6.1-7.7-8.6-7.7-8.6L44.5,90.9z"/>
	<path class="st8" d="M36.7,348.6c0.3,1.2,2.8,1.4,2.5,3.2c-0.3,1.8,0.3,3.1,0.3,3.1s3.8,0.2,8.3,0c1.3,0,2.4-0.2,3.3-0.5
		c-0.7,0-1.7,0.1-3-0.1c-2.4-0.2-6.8-2.8-5.1-3.8c1.6-1.1,8.5-2.5,8.5-2.5s-10.4,0.7-10.7-0.5c-0.3-1.2,1.6-3.2,2.8-4.9
		c1.2-1.7,3-23.7,2.8-30.6c-0.2-6.9,3-28.1,4.8-29.1c1.8-0.9,2.5,8.8,4.3,6.7c1.7-2.1,2.7-45.4,10-52.6c7.2-7,30.2-13.3,31-13.5
		c0,0,0,0,0,0l-1.1-1.8l-16.2-1.4l-21-15.2l-3.9,4c-0.4,1-0.9,2-1.6,2.9c-3,4.5-2.2,10.9-2.1,12.3c0.2,1.4,0.8,46-0.3,51.5
		c-1.2,5.5-6.8,20.9-6.6,30.9c0.2,10-0.9,26-1.4,30.4C41.6,341.5,36.4,347.4,36.7,348.6z"/>
	
		<linearGradient id="SVGID_00000073691737348994852450000017112724652031955328_" gradientUnits="userSpaceOnUse" x1="55.5973" y1="218.3268" x2="53.9057" y2="205.9605" gradientTransform="matrix(-1 0 0 1 116.0322 0)">
		<stop  offset="0" style="stop-color:#FDC38B"/>
		<stop  offset="1" style="stop-color:#FDA37D"/>
	</linearGradient>
	<path style="fill:url(#SVGID_00000073691737348994852450000017112724652031955328_);" d="M55.2,205c0,0,1.3,0.9,4.4,2
		c3.2,1.1,10.5,8.2,10.5,8.2s-6.9,1.7-9,1.9c-2.1,0.2-6.1,1.2-7.1,0c-0.9-1.2-1.7-8.3-1.7-8.3L55.2,205z"/>
	<path class="st54" d="M60.5,205c0,0-1.6,3.6-3.9,7.6c-2.3,4-2.9,5.4-2.9,5.4s5,6.6,11,8c6,1.4,12.7,0.1,13.5-4.8
		c0.8-4.9-6.7-10.3-9.4-12C66.1,207.4,60.5,205,60.5,205z"/>
	<path class="st55" d="M90.9,365.1c0.3,0.9,12.8,1.3,18.4,1.9c1.4,0.2,2.7,0.3,3.9,0.3h0c3.5,0.1,6.5-0.1,11-0.3
		c6.1-0.3,6.5-1,6.5-1s-3.7-2.9-7.1-3.3c-3.3-0.4-14-4.4-15.6-5.9c-2.7-2.7,4.5-8.5,3.3-9.2c-1.2-0.7-6.9-0.7-7.6,0
		c-0.7,0.7-0.7,5.6-1.3,5.9c-0.6,0.3-11.1,1.6-11.1,1.6S90.5,364.2,90.9,365.1z"/>
	<path class="st55" d="M39.3,361.2c-0.1,2,2,6,3.8,6.6c0.4,0.2,1.2,0.3,2.1,0.4c0,0,0,0,0,0h0c2.9,0.4,7.7,0.8,11.2,0.7
		c4.7-0.1,4.8-0.8,4.8-0.8s-0.2-2.1-3-3.8c-1.8-1.1-3.3-3.7-4.3-5.6c-0.6-1.2-1-2.2-1-2.2c0-2,3.7-5.8,2.6-6.8
		c-1.1-1-7.9-0.8-9.3,0.5c-1.4,1.3,0,4.7,0,4.7l-6.3,0C39.9,354.9,39.4,359.2,39.3,361.2z"/>
	<path class="st2" d="M107.3,234.2c0,0-1.3-0.1-1.8-2.5c-0.6-2.3-0.6-4.5-0.6-4.5s-0.3,2.1,0,4.2
		C105.2,233.5,105.1,234.1,107.3,234.2z"/>
	<path class="st2" d="M103.5,234.5c0,0-1.1-0.3-1.4-2.2s-0.2-4.8-0.2-4.8s-0.5,3.9-0.1,5.4C102.2,234.5,103.5,234.5,103.5,234.5z"/>
	<path class="st2" d="M100.3,234.7c0,0-0.7-0.4-0.9-2.3c-0.3-1.9,0.1-5.1,0.1-5.1s-0.9,2.7-0.7,4.8c0.2,2,0.3,2,0.3,2
		S99.7,234.7,100.3,234.7z"/>
	<path class="st56" d="M90.9,365.1c0.3,0.9,12.8,1.3,18.4,1.9c1.4,0.2,2.7,0.3,3.9,0.3c-1.9-0.4-14.2-2.2-12-6.8
		c1.9-3.9,6.8-3.7,6.8-3.7c-2.7-2.7,4.5-8.5,3.3-9.2c-1.2-0.7-6.9-0.7-7.6,0c-0.7,0.7-0.7,5.6-1.3,5.9c-0.6,0.3-11.1,1.6-11.1,1.6
		S90.5,364.2,90.9,365.1z"/>
	<path class="st56" d="M39.3,361.2c-0.1,2,2,6,3.8,6.6c0.4,0.2,1.2,0.3,2.1,0.4c-0.2,0-0.9-0.2-1.5-0.5c-0.7-0.3-2.5-1.9-2.8-4.3
		c-0.1-0.9,0.7-4.9,4.4-4.7c3.7,0.2,8.6,0,8.6,0c-0.6-1.2-1-2.2-1-2.2c0-2,3.7-5.8,2.6-6.8c-1.1-1-7.9-0.8-9.3,0.5
		c-1.4,1.3,0,4.7,0,4.7l-6.3,0C39.9,354.9,39.4,359.2,39.3,361.2z"/>
</g>
<g>
	
		<linearGradient id="SVGID_00000183231146477151747600000003178874231430134444_" gradientUnits="userSpaceOnUse" x1="129.7079" y1="364.9803" x2="151.4685" y2="364.9803">
		<stop  offset="0" style="stop-color:#DDF8FD"/>
		<stop  offset="1" style="stop-color:#8290C5"/>
	</linearGradient>
	<path style="fill:url(#SVGID_00000183231146477151747600000003178874231430134444_);" d="M151.5,367.2v2.9c0,0-6.1,1.3-11.8,0.4
		c-5.8-0.9-9.6-8.4-9.6-8.4l-0.3-3.1l8.1,6L151.5,367.2z"/>
	
		<linearGradient id="SVGID_00000055684877825895039290000002508837477371573161_" gradientUnits="userSpaceOnUse" x1="162.3104" y1="366.6488" x2="193.5288" y2="366.6488">
		<stop  offset="0" style="stop-color:#DDF8FD"/>
		<stop  offset="1" style="stop-color:#8290C5"/>
	</linearGradient>
	<path style="fill:url(#SVGID_00000055684877825895039290000002508837477371573161_);" d="M193.5,365.2v2.9c0,0-5.8,0.9-13.5,0.4
		s-17.7-0.3-17.7-0.3v-3.2c0,0,10-0.8,16.1-0.5C184.6,364.9,193.5,365.2,193.5,365.2z"/>
	<polygon class="st2" points="163,359.1 163.5,355.8 169.6,355.1 171.3,359.1 	"/>
	<polygon class="st2" points="130,356.9 130.2,355.8 135.8,354.6 136.3,356.4 135.3,360.5 132.6,360.7 	"/>
	<path class="st22" d="M167.3,187.2c0,0,0,3.3,0.2,3.8c0.2,0.5,4.8,9,7.5,15c2.7,6,5.6,24.2,5,41.7c-0.6,17.5-3.2,35.8-6.3,53.5
		c-3.1,17.7-3.6,49.9-3.6,51c0,1.1,0.2,2.8,0.2,2.8l-7.5,0.8c0,0-9.1-32-8.9-39.5c0.2-7.5,4.6-20.5,5.8-25.8c1.2-5.4-4.5-36-4.5-36
		s2.9-11.8,2.6-19.8c-0.3-8-17.8-27-17.8-27l5.5-10.6l0.3-8.7L167.3,187.2z"/>
	
		<linearGradient id="SVGID_00000146468582419213231080000004724745161219792307_" gradientUnits="userSpaceOnUse" x1="190.87" y1="248.1019" x2="182.051" y2="183.6303">
		<stop  offset="0" style="stop-color:#FDC38B"/>
		<stop  offset="1" style="stop-color:#FDA37D"/>
	</linearGradient>
	<path style="fill:url(#SVGID_00000146468582419213231080000004724745161219792307_);" d="M199.6,241.9c0,1-1.3,4.1-1.5,4
		c-0.9-0.6,0.3-2.7,0.1-3.5c-0.2-0.8-1.4-3.2-1.4-3.2s0.6,2.5,0.6,3.2c0,0.7-1.5,4.4-2,4.7c-0.5,0.3-0.9,0.1-0.9,0.1
		s-0.8,0.8-0.9,0.5c-0.2-0.3,1-3.4,1-4.2c0-0.7-1.1-3.7-1.4-4.4c0.1,0.5,0.7,2.8,0.5,3.9c-0.3,1.2-1.4,4.6-1.8,4.2
		c-0.4-0.4,0.3-4.4-0.2-6.6c-0.6-2.2-3.3-5.9-3.3-5.9s-0.1,0.2,0,0.8c0,0.6,0.5,2.1,0.6,3.8c0,1.6-1,3.5-1.5,3.1
		c-0.5-0.5-0.1-1.3-0.4-3.4c-0.3-2.1-1.3-4.9-1.2-6.5c0.1-0.8,0.5-1.6,0.8-2.6c0,0,0,0,0,0c0.3-0.9,0.6-1.9,0.3-3.2
		c-0.5-2.6-11.4-19.3-12-24.4c-0.2-1.9,0.1-5,0.7-8.1c1-5.4,2.8-10.8,4.4-10.1c1,0.4,2.2,2.5,3.9,5.8c0.7,1.3,1.4,2.9,2.2,4.7
		c0.3,0.7,0.7,1.5,1,2.3c3.3,7.5,2.5,28.4,3.1,29c0.5,0.6,3.6,4.6,5.5,7.9C197.5,236.9,199.6,241,199.6,241.9z"/>
	<path class="st2" d="M186.6,229.7c0.3-0.9,0.6-1.9,0.3-3.2c-0.5-2.6-11.4-19.3-12-24.4c-0.2-1.9,0.1-5,0.7-8.1l8.2-4.2
		c0.7,1.3,1.4,2.9,2.2,4.7c0,0-4.2,5.9-4.9,11.6c-0.8,5.7,5.2,17,6.1,18.8C188.2,226.6,186.8,229.5,186.6,229.7z"/>
	<path class="st60" d="M115,182.7c0,0,1.2-5.4-1-9.4c-2.2-4-2.1-3.2-3.2-5.9s-0.2-2.7,1.2-5.6c1.4-2.9,20.9-19.1,21.1-23.4
		c0.2-4.3-0.2-31.1-0.1-32.4c0.1-1.3,10.2-18.3,12.4-19.3c2.2-1,39.8-1.9,41.4,5.2c1.6,7.1-5.1,20.5-3.6,26
		c1.5,5.4,6.5,10.9,4.7,15.2s-4.3,5.9-4.6,9.8c-0.3,3.9,6.8,14.9,8.7,17.6c1.9,2.8,2.7,2.6,1.9,5.9c-0.8,3.3-7.3,13-7.6,16.6
		c-0.3,3.6-0.6,5.5-0.6,5.5s-11.6-1.6-17.4-2.2c-5.8-0.7-5.5-6.8-30.3-6.1C130,180.3,115,182.7,115,182.7z"/>
	<path class="st2" d="M172.2,142.9c0,0-6.7,1.4-11.3,2.4c-4.6,1-19-0.7-19-0.7s-9.7,19.5-11,23.6c-1.3,4.1-2.8,11-2.8,11
		s-13.6,18.5-14.9,17.6c-1.3-0.9,0.5-17.7,4.7-28.6c4.2-11,11.8-23.3,14.8-25.4c3-2.1,3.9-1.6,6.2-2.1c0.9-0.2,3-0.9,5.1-1.7
		c3.1-1.1,6.4-2.4,6.7-2.7c0.4-0.4,0.7-3.4,0.9-5c0.1-0.6,0.1-0.9,0.1-0.9l5.5,1.9l2.8,1c0,0,0.2,1.9,0.2,3c0,0.2,0.5,0.6,1.3,1.2
		C164.6,139.4,172.2,142.9,172.2,142.9z"/>
	<path class="st6" d="M161.5,137.5c0,0-1.2,0.6-4.9,1c-3.7,0.4-12.6,0.6-12.6,0.6c3.1-1.1,6.4-2.4,6.7-2.7c0.4-0.4,0.7-3.4,0.9-5
		l5.6,1l2.8,1c0,0,0.2,1.9,0.2,3C160.2,136.5,160.7,136.9,161.5,137.5z"/>
	<path class="st61" d="M167.4,140.6c0,0,2.4,1.2,4.7,2.2c2.5,1.1,5.1,3.3,6.2,6c1.6,4.2,2.8,21.9,3.6,27c0.9,5.9,3.1,13.3,3.1,13.3
		s-4.4,2.9-7.7,4.3c-3.3,1.4-3.3,1.4-3.3,1.4s-4.5-14.9-5.2-19.7C168.1,170.2,167.4,140.6,167.4,140.6z"/>
	
		<linearGradient id="SVGID_00000044140958490002909480000014375136902038051979_" gradientUnits="userSpaceOnUse" x1="161.1721" y1="133.2016" x2="154.1615" y2="81.9499">
		<stop  offset="0" style="stop-color:#FDC38B"/>
		<stop  offset="1" style="stop-color:#FDA37D"/>
	</linearGradient>
	<path style="fill:url(#SVGID_00000044140958490002909480000014375136902038051979_);" d="M176.6,123.7c-2.1,3.6-9.6,8.2-16.6,9.6
		c0,0,0,0,0,0c-0.8,0.2-1.5,0.3-2.3,0.3c-5.1,0.5-14.3-7-17.4-12.7c-3.1-5.6-4-17.1-4-17.1s6.5-22.1,17-21.6
		c10.5,0.5,23.5,9.6,24.1,15.5c0.6,5.8-0.6,8.9-0.7,14.3C176.4,117.5,178.9,119.7,176.6,123.7z"/>
	<path class="st2" d="M160,133.3c-0.8,0.2-1.5,0.3-2.3,0.3c-5.1,0.5-14.3-7-17.4-12.7c-3.1-5.6-4-17.1-4-17.1s6.5-22.1,17-21.6
		c10.5,0.5,23.5,9.6,24.1,15.5c0,0-8.7-6.3-20.4-6.3s-14.6,9.6-14.2,16.6c0.4,7,1.5,12.2,6,17.5c4.5,5.3,7.5,7.1,8.8,7.6
		C158.7,133.5,159.7,133.3,160,133.3z"/>
	<path class="st10" d="M151.7,122.1c0,0,4.1,1.8,7.3,2.2c3.2,0.4,5.3,0.2,5.3,0.2s-1.6,3.3-3.8,3.4c-2.2,0.1-7-3.2-7.1-3.3
		S151.7,122.1,151.7,122.1z"/>
	<path class="st10" d="M167.4,115.8c0,0,4.2-9.5,6.4-8.7c2.2,0.7,2,4.5,2,4.5s-0.4,4.4-2.1,5.2C172,117.5,167.9,116.8,167.4,115.8z"
		/>
	<path class="st10" d="M156.6,114.4c0,0-1.1-8.1-4.9-9.2s-7,1.3-7,1.3s-0.2,3.8,2.1,6.1C149,114.8,156.4,114.7,156.6,114.4z"/>
	
		<linearGradient id="SVGID_00000150792119862480347650000014646038776170822544_" gradientUnits="userSpaceOnUse" x1="146.7204" y1="108.7964" x2="153.6599" y2="108.7964">
		<stop  offset="0" style="stop-color:#A43113"/>
		<stop  offset="1" style="stop-color:#6F160D"/>
	</linearGradient>
	<path style="fill:url(#SVGID_00000150792119862480347650000014646038776170822544_);" d="M153.7,108.8c0,2.4-1.6,4.3-3.5,4.3
		c-1.9,0-3.5-1.9-3.5-4.3s1.6-4.3,3.5-4.3C152.1,104.5,153.7,106.4,153.7,108.8z"/>
	<path class="st1" d="M152.7,108.3c0,1.7-1.1,3.1-2.5,3.1c-1.4,0-2.5-1.4-2.5-3.1c0-1.7,1.1-3.1,2.5-3.1
		C151.5,105.2,152.7,106.6,152.7,108.3z"/>
	
		<linearGradient id="SVGID_00000065049663029662886240000008346650584770293904_" gradientUnits="userSpaceOnUse" x1="168.2434" y1="111.8738" x2="173.8302" y2="111.8738">
		<stop  offset="0" style="stop-color:#A43113"/>
		<stop  offset="1" style="stop-color:#6F160D"/>
	</linearGradient>
	<path style="fill:url(#SVGID_00000065049663029662886240000008346650584770293904_);" d="M172.7,108.2c-0.3-0.3-0.7-0.5-1.1-0.6
		c-0.2,0-0.3,0-0.5,0c-0.2,0.3-0.4,0.6-0.6,1c-0.5,0.9-1,1.9-1.5,2.9c-0.3,0.7-0.6,1.4-0.8,2c0,0,0,0,0,0c0,0.2,0.1,0.4,0.1,0.6
		c0.4,1.1,1.1,1.9,2,2.1c1.5,0.2,3-1.5,3.4-3.9C174,110.6,173.6,109,172.7,108.2z"/>
	<path class="st1" d="M173,111.6c-0.2,1.7-1.3,2.9-2.4,2.7c-0.7-0.1-1.2-0.8-1.5-1.7c-0.1-0.4-0.1-0.8-0.1-1.2c0.4-1,0.9-2,1.5-2.9
		c0.3-0.2,0.6-0.3,1-0.2c0.2,0,0.5,0.1,0.6,0.3C172.8,109.1,173.2,110.3,173,111.6z"/>
	<path class="st1" d="M156.7,114.7c0,0,0.2-8.1-4.3-10.2c-4.5-2.1-7.4,0.1-8.6-0.3c-1.2-0.4-2-0.8-2-0.8s1.2,3,2.9,3.1
		c1.7,0.2,4.3-1.7,7.4-0.4C155.1,107.4,156.7,114.7,156.7,114.7z"/>
	<path class="st1" d="M143.2,104.5c0,0,1.6-0.7,4.5-1.9c3-1.2,5.5-1.1,5.5-1.1s-2.2,0.3-3.8,1.2c-1.5,0.9-2.5,1.5-2.5,1.5
		L143.2,104.5z"/>
	<path class="st1" d="M179.5,108.8c-0.3,0.3-3.1,2.8-3.9,2.7c-0.8-0.2,0.4-5.2-2.8-3.4c0,0-0.1,0-0.1,0.1c-0.2,0.1-0.4,0.3-0.6,0.4
		c-0.9,0.9-2.1,2.6-3,4.1c-0.3,0.5-0.6,0.9-0.8,1.3c-0.5,0.9-0.9,1.6-0.9,1.7c0.1-0.2,0.3-1.1,0.8-2.3c0,0,0,0,0,0
		c0.2-0.6,0.5-1.3,0.8-2c0.4-1,0.9-2,1.5-2.9c0.2-0.3,0.4-0.7,0.6-1c1-1.4,2.1-2.4,3.2-2.2c1.9,0.3,1.7,3.7,2.4,4.2
		C177.3,110,179.2,109,179.5,108.8z"/>
	<path class="st1" d="M175.8,109.3c0,0,0.1-1.8,0-3.5c-0.1-1.8-0.4-2.4-0.4-2.4s0.9,2,1.1,3.7c0.2,1.7-0.2,3.1-0.2,3.1L175.8,109.3z
		"/>
	<path class="st1" d="M144.8,107.6c0,0,0,2.2,1.7,4.2c1.7,2,4,2.5,4,2.5s-3.1-0.5-4.5-1.8C144.6,111.2,144.8,107.6,144.8,107.6z"/>
	<path class="st1" d="M169.1,116.8c0,0,2.7-0.1,3.9-0.4s2.2-2.3,2.2-2.3s-0.5,2.4-1.3,3.2C173.1,118,169.1,116.8,169.1,116.8z"/>
	<circle class="st10" cx="152.7" cy="110.9" r="1.5"/>
	<path class="st10" d="M174.4,113c0,0.6-0.5,1.1-1.1,1.1s-1.1-0.5-1.1-1.1c0-0.6,0.5-1.1,1.1-1.1S174.4,112.4,174.4,113z"/>
	<path class="st1" d="M158.5,94.4c0,0-2.4,0.2-5.8,0.5c-3.4,0.2-4.1-0.4-6.9,0.5c-2.9,0.9-4.5,3.2-4.5,3.2s3.7-2.5,7.2-2
		c3.5,0.4,5.9,1.4,7.8,1.2C158.2,97.4,158.5,94.4,158.5,94.4z"/>
	<path class="st1" d="M171.6,96.8c0,0,1.4,1.5,3.8,2.8s2.9,2.1,3.2,3.9c0.2,1.2-0.1,2.6-0.1,2.6s0.2-2.2-1.5-3.5
		c-1.7-1.3-3.1-0.2-4.9-1.8C170.3,99.3,171.6,96.8,171.6,96.8z"/>
	
		<linearGradient id="SVGID_00000011026770665252100450000015077943302400510861_" gradientUnits="userSpaceOnUse" x1="149.4501" y1="122.4857" x2="167.4499" y2="122.4857">
		<stop  offset="0" style="stop-color:#CA0000"/>
		<stop  offset="1" style="stop-color:#A80009"/>
	</linearGradient>
	<path style="fill:url(#SVGID_00000011026770665252100450000015077943302400510861_);" d="M149.7,119.6c0,0,1.2,2.6,6.1,3.3
		c4.8,0.7,11.7,0.2,11.7,0.2s-2.4,2.2-5.4,2.3c-3.1,0.1-7.4-1.3-9.4-2.4c-1.9-1.1-3.2-3.2-3.2-3.2L149.7,119.6z"/>
	
		<linearGradient id="SVGID_00000140700687428793243850000017657326656282611074_" gradientUnits="userSpaceOnUse" x1="149.4501" y1="124.6915" x2="165.6049" y2="124.6915">
		<stop  offset="0" style="stop-color:#CA0000"/>
		<stop  offset="1" style="stop-color:#A80009"/>
	</linearGradient>
	<path style="fill:url(#SVGID_00000140700687428793243850000017657326656282611074_);" d="M149.5,119.8c0,0,0.8,1.8,2.5,4.6
		c1.7,2.8,4.8,5.3,7.3,5.3c2.5-0.1,3.4-1.5,4.2-2.8c0.8-1.3,2.1-2.4,2.1-2.4l-1.5,0.1c0,0-0.6,0.5-1.3,1.4c-0.7,0.9-2.1,1.2-4.2,0.6
		c-2.6-0.8-6.5-3.9-6.5-3.9L149.5,119.8z"/>
	<path class="st2" d="M152.9,117.9c0,0-1.6,0.6-4.1,1.5c-1.3,0.4-1.1,2.8-1.1,2.8s0.3-1.1,1.5-1.7
		C150.3,119.9,152.1,119,152.9,117.9z"/>
	<path class="st2" d="M157.8,118c0,0,1.6,0.7,4,1.2c2.6,0.5,4.7,0.3,4.7,0.3s-1.8,1.7-3.7,1.5c-1.5-0.2-2.4-1.3-2.4-1.3
		s-0.3,0.4-1.4,0.2C157.9,119.9,157.8,118,157.8,118z"/>
	<path class="st60" d="M134.6,107.9c0,0,2,1.8,3.3,3.9c1.3,2.1,2.2,2.9,2.2,2.9s0-4.3,0-6.5c0-2.2,0.3-3.3,0.3-3.3L134.6,107.9z"/>
	<path class="st67" d="M176.2,172.4c-1,1.8-5,4.7-5.3,4.8c-0.4,0.1-3.6,9.9-3.6,9.9s-7.6,1.6-11.6,1.3c-4-0.3-8.1-1.3-8.1-1.3
		s-6-8.7-8-14.3c-0.8-2.2-1.6-4.8-2.4-7.2c-1.2-3.8-2.1-7-2.1-7s3.2-3.4,5-6.7c0.7-1.2,1.1-2.4,1.3-3.4c0.5-3.9,0.4-8.6,0.4-8.6
		s0,0,0,0c0.2,0.1,7.5,2.6,14.9,3c7.6,0.3,10.8-2.2,10.8-2.2s2,6,4.4,11.7c1.1,2.4,2.2,4.8,3.3,6.6
		C178.9,164.8,177.9,169.2,176.2,172.4z"/>
	<path class="st67" d="M144,150.6c0,0.2,0,0.3,0,0.5c-0.6,7.3-2.7,10.7-2.7,10.7s-2.3,2.1-4.1,3.8c-0.3,0.3-0.5,0.5-0.7,0.8
		c-2.6,2.9-5.5,8.7-7.1,12.1h0c-0.7,1.6-1.1,2.6-1.1,2.6s-2.3,0.8-5.9,3.4c-4.5,3.3-9.4,10.2-9.4,10.2s0.9-16.5,4.5-26.5
		c4.2-11.6,10.1-23,15.2-26.2c3.4-2.2,9.2-2.1,9.2-2.1s0,0,0,0C141.9,140.2,144.5,144.5,144,150.6z"/>
	<polygon class="st2" points="162.9,169.4 163.1,171 164.2,170.5 163.6,169.7 	"/>
	<path class="st61" d="M171.9,152.3c-3.2-2.2-8.5-2.8-11.6-2.6c-13.9,0.7-22.5,8.4-25.2,8.9c-5.9,1.2-7.9,14.9-8.9,16.9
		c-1,1.8,2.9,3,3.2,3.1c-0.7,1.6-1.1,2.6-1.1,2.6s-2.3,0.8-5.9,3.4c-4.5,3.3-9.6,10.2-9.6,10.2s1.1-16.5,4.7-26.5
		c4.2-11.6,10.1-23,15.2-26.2c3.4-2.2,9.2-2.1,9.2-2.1s0,0,0,0c0.2,0.1,7.5,2.6,14.9,3c7.6,0.3,10.8-2.2,10.8-2.2
		S169.4,146.7,171.9,152.3z"/>
	<g>
		
			<linearGradient id="SVGID_00000098199444519460832910000012725297933681101727_" gradientUnits="userSpaceOnUse" x1="181.9122" y1="154.65" x2="195.5431" y2="154.65">
			<stop  offset="0" style="stop-color:#FF7045"/>
			<stop  offset="1" style="stop-color:#BD3E39"/>
		</linearGradient>
		<path style="fill:url(#SVGID_00000098199444519460832910000012725297933681101727_);" d="M183.2,142.9c0,0,1.2,3.5,5.7,7
			c4.5,3.6,6.9,7.4,6.7,10.6c-0.2,3.2-1.7,5.9-1.7,5.9s-1.2-4.8-7.3-8.2C178.7,153.8,183.2,142.9,183.2,142.9z"/>
		
			<linearGradient id="SVGID_00000136399731735811256360000010562668319251495864_" gradientUnits="userSpaceOnUse" x1="110.081" y1="119.9412" x2="195.0205" y2="119.9412">
			<stop  offset="0" style="stop-color:#BD3E39"/>
			<stop  offset="1" style="stop-color:#FF7045"/>
		</linearGradient>
		<path style="fill:url(#SVGID_00000136399731735811256360000010562668319251495864_);" d="M194.9,125.4c-0.6,2.1-7.1,7.7-7.1,7.7
			s0.7-2.4-2.9-6.6c-3.6-4.2-8.6-6.6-6.2-13.4c2.4-6.8,7.1-17.7,5.9-21.2c-2.4-6.9-37.9-0.2-37.9-0.2s-0.1,3.5-1.3,7
			c-0.7,2.3-1.9,4.7-3.7,6.2c-4.6,3.8-6.7,4.2-6.7,4.2s-1.1,14.9,1.5,21.6c2.7,6.7,1.4,15.2-6.9,22.3c-8.3,7-16.1,8.1-18.3,10.6
			c-2.1,2.4-0.2,4.5,0,4.7c-0.2-0.1-3.2-1.7,1-9c4.4-7.5,6.2-24.2,6.2-41.3c0-8.7,0.9-14.3,2.5-18.6c1.6-4.1,3.9-6.9,7-9.9
			c6.2-6.1,26.8-18.4,41.9-18c7,0.2,20.1,21.8,20.8,25.2s-0.9,14.1,0.5,18.9C192.5,120.6,195.5,123.3,194.9,125.4z"/>
		<path class="st70" d="M147.2,91.6l3.2-0.5c0,0,12.8-5.5,17.8-6.6c8.9-1.9,14.1-1.8,14.1-1.8l-0.6-0.8c0,0-4.4-0.2-12.1,1.4
			C161.4,84.9,147.2,91.6,147.2,91.6z"/>
		<path class="st70" d="M147.8,91.4l-1,0.3c0,0,10.5-7.8,15.9-11c7.5-4.5,13-6,13-6l1.3,1.3c0,0-5.3,1.6-13.1,5.2
			C156,84.8,147.8,91.4,147.8,91.4z"/>
		<path class="st70" d="M151.2,75.7c0,0-1.2,2.7-2.2,8.1c-0.4,1.9-1.1,7.6-1.1,7.6l-1.1,0.2c0,0,0.5-4,1.1-8.5
			c0.6-4.5,1.1-6.5,1.1-6.5L151.2,75.7z"/>
		<path class="st70" d="M146.6,93c0,0-6.2,1.8-13.6,2.3c-7.4,0.5-9.8-0.1-9.8-0.1l-1.4,2.5c0,0,6.1,0.1,12.1-0.9
			c6-1,12.5-2.9,12.5-2.9L146.6,93z"/>
		<path class="st70" d="M145.2,99.5c0,0-8.5,5.7-17.1,11.9c-8.7,6.2-9.5,6.7-9.5,6.7l0,2.6c0,0,8-5.5,14.8-10.9
			c6.7-5.4,11.3-8.9,11.3-8.9L145.2,99.5z"/>
		<path class="st70" d="M114.6,154c0,0,4.4-3.2,12.2-14.5c7.8-11.2,8.2-18.5,8.2-18.5l0.1,1.4c0,0-1.6,9.4-8.3,18.1
			s-12.8,15.3-12.8,15.3L114.6,154z"/>
		<path class="st70" d="M111.3,161.2c0,0,6.9-3.6,15-12.1c8.2-8.5,9.9-19.3,9.9-19.3l0.9,1.5c0,0-2.2,9.6-10,18
			c-7.8,8.4-16.3,13.4-16.3,13.4L111.3,161.2z"/>
		<path class="st70" d="M189.4,93.8c0,0-4,13.6-4.4,21.9c-0.3,8.3,4.9,15.5,4.9,15.5l1.1-1c0,0-6.2-7.2-5.1-16.2
			C187,105,190,95,190,95L189.4,93.8z"/>
		<path class="st70" d="M190.9,99.9c0,0-1.2,5.4-2.1,12.1c-1,6.7,5.4,10.1,5.4,10.1l-0.5-1c0,0-5.1-3.9-4.5-9.3
			c0.6-5.4,1.6-9.5,1.6-9.5L190.9,99.9z"/>
		<path class="st70" d="M195.2,162.6c0,0,0.4-5.6-3.7-9.1c-7-5.8-9-10.1-9-10.1l-0.6,2.3c0,0,1.3,2.9,8.7,8c4.9,3.4,4,10.7,4,10.7
			L195.2,162.6z"/>
		<path class="st70" d="M145.7,96.4l-0.3,2.3c-0.7,2.3-1.9,4.7-3.7,6.2c-4.6,3.8-6.7,4.2-6.7,4.2s-1.1,14.9,1.5,21.6
			c2.7,6.7,1.4,15.2-6.9,22.3c-8.3,7-16.1,8.1-18.3,10.6c-2.1,2.4-0.2,4.5,0,4.7c-0.2-0.1-3.2-1.7,1-9c4.4-7.5,6.2-24.2,6.2-41.3
			c0-8.7,0.9-14.3,2.5-18.6c0,0,1.9,0.6,10.3,0.4C139.7,99.7,145.7,96.4,145.7,96.4z"/>
	</g>
	<g>
		<path class="st2" d="M137.9,111.9c0,0-5.5-7.7-9.3-7.4c-2.5,0.2-2.5,6.5,0.1,10.3c2.6,3.8,5.9,6.7,8.3,6.3
			c2.4-0.3,2.5-1.8,2.5-1.8L137.9,111.9z"/>
		<path class="st6" d="M137.9,117.1c0,0-2-4.5-4.2-6.9c-2.2-2.5-5.7-3.6-5.7-3.6s2.1,1.7,4.7,4.4
			C135.3,113.6,137.9,117.1,137.9,117.1z"/>
		<path class="st6" d="M136,113.9c0,0-0.2,1.4-1.1,2c-0.9,0.6-3.6-0.9-3.6-0.9s2.1,1.8,3.5,2c1.3,0.2,1.8-1.8,1.8-1.8L136,113.9z"/>
	</g>
	<path class="st71" d="M157.8,246.5c-0.7,5-5.4,23.3-10.1,41.3c-1.3,4.9-2.6,9.7-3.9,14.2c-5.8,21.2-7.2,52.4-7.2,52.4l-6.3,1.4
		c0,0-3.9-20.4-5.2-33.1l0-0.1c-0.4-3.8-0.5-6.9-0.2-8.6c1.2-7.5,4.8-19.4,6-26c1.2-6.6-1-52.5,0-56.3c1-3.7,9.2-24,9.2-24
		C162.2,223,158.7,240.2,157.8,246.5z"/>
	
		<linearGradient id="SVGID_00000000926264886354489640000017688120380679420572_" gradientUnits="userSpaceOnUse" x1="129.7079" y1="361.7928" x2="151.4685" y2="361.7928">
		<stop  offset="0" style="stop-color:#CA0000"/>
		<stop  offset="1" style="stop-color:#A80009"/>
	</linearGradient>
	<path style="fill:url(#SVGID_00000000926264886354489640000017688120380679420572_);" d="M133.2,359.4c0,0-0.5-2.4,0-2.8
		c0.5-0.4,3.8-0.7,4.1-0.8c0.3-0.1,2.5,3.2,4.4,5c1.9,1.8,8.6,3.3,9.2,4c0.5,0.7,0.7,2.4,0.7,2.4s-8.4,1.5-14.2-0.6
		s-7.6-7.6-7.6-7.6l0.3-2.2L133.2,359.4z"/>
	
		<linearGradient id="SVGID_00000134953098281120805670000001390549163225980315_" gradientUnits="userSpaceOnUse" x1="162.3104" y1="360.988" x2="193.5288" y2="360.988">
		<stop  offset="0" style="stop-color:#CA0000"/>
		<stop  offset="1" style="stop-color:#A80009"/>
	</linearGradient>
	<path style="fill:url(#SVGID_00000134953098281120805670000001390549163225980315_);" d="M163,359.1l-0.7,6c0,0,4.5-0.4,12,0
		c7.5,0.4,12.7,0.8,14.8,0.5c2.1-0.2,4.5-0.5,4.5-0.5s-0.4-1.4-2.1-1.8c-1.7-0.4-7.9-0.5-11.5-2.3c-3.5-1.8-7.2-4.9-7.7-4.9
		c-0.5,0-2.1,0.5-1.8,1.4c0.2,0.8,0.7,1.3,0.7,1.3L163,359.1z"/>
	<path class="st74" d="M133.7,228.6c0,0,5.1-1,9.8-3.1c4.7-2.2,7.3-4.5,7.3-4.5l-0.6,2.4c0,0-3.6,2.2-8.6,4c-5,1.8-7.9,2.4-7.9,2.4
		V228.6z"/>
	<path class="st74" d="M135.6,229.3c0,0-1.9,12.3-1.9,22c0,9.7,0.7,30.2,0,35.4c-0.7,5.2-6.8,23.3-6.5,30.1
		c0.3,6.8,3.6,38.9,3.6,38.9l0.9-0.3c0,0-4.3-37.4-3.7-40.9c0.6-3.5,6.5-26.2,6.7-28.1c0.2-1.8-0.1-32.9-0.1-36.1
		c0-3.2,2.2-21.4,2.2-21.4L135.6,229.3z"/>
	<path class="st74" d="M137.5,227.6c0,0,2.3-8.4,3.6-12.8c1.3-4.5,3.3-10.5,3.3-10.5l2.2-0.3c0,0-2.5,4.9-4.2,9.6
		c-1.7,4.7-3.6,14-3.6,14H137.5z"/>
	<path class="st75" d="M166.2,355.5c0,0-8.9-35.9-7.7-44.2c1.2-8.3,4.6-19.1,5.2-24.3c0.6-5.2-6.9-35.3-6.9-35.3l0.6-2.1
		c0,0,8,34.4,7.5,37.3c-0.5,2.9-5.8,22.6-5.8,26.5c0,3.9,7.8,42,7.8,42L166.2,355.5z"/>
	<path class="st74" d="M161.9,193.1c0,0,2.1,17.1,2.3,26c0.2,8.9-7.9,34.3-7.9,34.3s9.1-28.4,9.6-33c0.5-4.6-2-25.6-2-25.6
		L161.9,193.1z"/>
	
		<linearGradient id="SVGID_00000014623391489949917580000005185409931725718683_" gradientUnits="userSpaceOnUse" x1="129.3068" y1="178.2599" x2="165.9706" y2="178.2599">
		<stop  offset="0" style="stop-color:#CA0000"/>
		<stop  offset="1" style="stop-color:#A80009"/>
	</linearGradient>
	<polygon style="fill:url(#SVGID_00000014623391489949917580000005185409931725718683_);" points="166,201 161.2,151.1 129.3,155.9 
		137.6,205.4 	"/>
	<polygon class="st37" points="129.3,155.9 132.3,153.9 163.4,148.9 166.6,200.4 166,201 161.2,151.1 	"/>
	<g>
		
			<linearGradient id="SVGID_00000163757431612801802160000017732212209712857273_" gradientUnits="userSpaceOnUse" x1="141.0746" y1="193.5841" x2="137.8316" y2="169.8761">
			<stop  offset="0" style="stop-color:#FDC38B"/>
			<stop  offset="1" style="stop-color:#FDA37D"/>
		</linearGradient>
		<path style="fill:url(#SVGID_00000163757431612801802160000017732212209712857273_);" d="M166.9,175.8c0,0,0.7,1-0.1,1.6
			c-0.8,0.6-1.7,1.3-5.4,1.9c-3.7,0.6-8.4-0.4-9.2-0.4c-0.8,0-16.7,13.6-24.6,15.6c-7.9,2-12.9,3.1-14.4,2.4
			c-2.4-1.2,6.4-12.7,10.7-15.4c4.3-2.7,24.6-4.4,26.9-5.6c2.3-1.2,2.9-4,4-5.1c1.2-1.1,3.7-1.4,5.6-2.5c1.8-1.1,2.2-2,2.9-1.8
			c0.7,0.1-0.2,2.1-1.5,3.1c-1.3,1-2.8,1.5-3.3,1.9c-0.5,0.3-0.6,0.5-0.6,0.5s2.8,0.1,4.9-0.8c2.1-0.9,1.8-2.2,1.8-2.2
			c0.6,0.1,1.8,1.7,1,2.7c-0.8,1-0.8,1-0.8,1s1.2-0.7,1.5-0.5c0.2,0.3,0.5,1,0.3,1.3c-0.2,0.3-0.8,0.7-0.8,0.7s1-0.3,1.1-0.2
			c0.1,0.2,0.4,1.1,0.1,1.4c-0.3,0.3-1,0.5-1,0.5L166.9,175.8z"/>
		<path class="st2" d="M161.9,173.6c0,0,2.7-0.9,3.1-1.2c0.6-0.5,0.9-1.1,0.9-1.1l0.1,0.9c0,0-0.1,0.3-0.8,0.7
			C164.4,173.2,161.9,173.6,161.9,173.6z"/>
		<path class="st2" d="M166.6,173.5c0,0-0.5,0.5-1.2,0.9c-0.7,0.4-2,0.7-2,0.7s1.3-0.2,2.2-0.6C166.4,174.2,166.6,173.5,166.6,173.5
			z"/>
		<path class="st2" d="M166.8,175.7c0,0-0.8,0.4-1.6,0.7c-0.8,0.3-1,0.3-1,0.3s1.4-0.2,1.9-0.4c0.4-0.1,0.8-0.5,0.9-0.7
			c0.1-0.2,0.1-0.2,0.1-0.2L166.8,175.7z"/>
	</g>
	<path class="st78" d="M147.6,287.8L147.6,287.8c-1.3,4.9-2.6,9.7-3.9,14.2c-5.8,21.2-7.2,52.4-7.2,52.4l-6.3,1.4
		c0,0-3.9-20.4-5.2-33.1l0-0.1l0-0.6c0,0,5.3-16.5,11.3-22.6C142.4,293.3,147.6,287.8,147.6,287.8z"/>
</g>
<g>
	<path class="st1" d="M205.6,205.4c0,0-1.9,12.4-1.2,24.7c0.7,12.3,4.7,17,8.6,8.9c3.9-8.1,4-27.7,3.7-28.6
		c-0.3-0.9-1.8-7.4-1.8-7.4l-2.6,1.2c0,0,2.8,8.3,1.7,18.1c-1.2,9.8-5.3,14.8-6,15.1c-0.7,0.3-1.8-9.5-1.4-18.2
		c0.5-8.7,1.3-13.3,1.3-13.3L205.6,205.4z"/>
	<path class="st28" d="M201.6,137.5c0,0-0.9,9.4-2.2,14.2c-1.3,4.8-2.9,26.7-2.4,34c0.4,7.3,4.5,20.1,7.4,20.3
		c2.9,0.2,11.4,0,11.4,0l15.5-20.3l-1-21.9l-6.5-25.5l-9.2-12L201.6,137.5z"/>
	<path class="st1" d="M200.5,146.3c0,0,6.2,6.1,11.7,21.7c5.5,15.6,5.4,29.5,5.4,29.5l15.2-17.9l-6-21l-14-25.6l-10.5,4l-0.8,1.9
		L200.5,146.3z"/>
	<path class="st20" d="M217.5,124.8c0,0-7.9-4.6-9.6-4.7s-7.5,4.9-7.7,5.7c-0.2,0.8,6.2,5.1,6.2,5.1l1.4-0.3c0,0-4.5-4.7-3.9-5.7
		c0.6-1.1,4.6-2.7,5.9-2.3c1.3,0.4,4.7,5,4.7,5L217.5,124.8z"/>
	<path class="st20" d="M220.6,124.6c0,0,3.1-1-4.3,0.9c-1,0.3-14.2,7.4-15.2,9.4c-1,2-0.8,4.9-0.8,4.9s6.1-4.5,9.9-4.9
		c13-1.4,13-8.5,13-8.5L220.6,124.6z"/>
	
		<linearGradient id="SVGID_00000077283924445595793430000015142193840569092773_" gradientUnits="userSpaceOnUse" x1="260.6556" y1="367.2344" x2="277.0244" y2="367.2344">
		<stop  offset="0" style="stop-color:#DDF8FD"/>
		<stop  offset="1" style="stop-color:#8290C5"/>
	</linearGradient>
	<path style="fill:url(#SVGID_00000077283924445595793430000015142193840569092773_);" d="M261,366.9l-0.4,3.8c0,0,7.7,1.8,12.3,0.3
		c4.6-1.5,4-8.1,4-8.1L261,366.9z"/>
	
		<linearGradient id="SVGID_00000070095939888994758920000011848389010230128006_" gradientUnits="userSpaceOnUse" x1="221.9588" y1="367.5676" x2="236.8957" y2="367.5676">
		<stop  offset="0" style="stop-color:#DDF8FD"/>
		<stop  offset="1" style="stop-color:#8290C5"/>
	</linearGradient>
	<path style="fill:url(#SVGID_00000070095939888994758920000011848389010230128006_);" d="M222,362.9c0,0-0.1,3.9,0.6,6
		c0.6,2.1,5.3,3.6,8.7,3.3c3.4-0.3,5.7-1.3,5.7-1.3l-1-3.9L222,362.9z"/>
	
		<linearGradient id="SVGID_00000002370972212821849000000006150172168167427981_" gradientUnits="userSpaceOnUse" x1="232.4849" y1="356.5746" x2="219.1467" y2="259.0657">
		<stop  offset="0" style="stop-color:#FDC38B"/>
		<stop  offset="1" style="stop-color:#FDA37D"/>
	</linearGradient>
	<path style="fill:url(#SVGID_00000002370972212821849000000006150172168167427981_);" d="M231.2,264.7c0,0-1.1,15.5-1.2,37.6
		c-0.2,22.2-1.4,53.9-1.4,53.9l-0.8,0.3l0,0l-3.1,1.1c0,0-9.2-41.2-9.7-47.2c-0.4-6,1.4-20,2-24.8c0.4-3.2-0.6-13.6-1.3-20.2l0-0.1
		c-0.4-3.3-0.7-5.7-0.7-5.7L231.2,264.7z"/>
	
		<linearGradient id="SVGID_00000181054810621227577130000001614298364071965831_" gradientUnits="userSpaceOnUse" x1="265.26" y1="354.3535" x2="252.9134" y2="264.0934">
		<stop  offset="0" style="stop-color:#FDC38B"/>
		<stop  offset="1" style="stop-color:#FDA37D"/>
	</linearGradient>
	<path style="fill:url(#SVGID_00000181054810621227577130000001614298364071965831_);" d="M273.6,353.2h-4.2c0,0-0.9-3.1-2.2-7.8
		c-3.8-13.2-11.5-39.5-15.5-48.9c-3.9-9.3-8-21.4-10-27.3l0,0c-0.7-2.1-1.1-3.4-1.1-3.4l18.3-0.3c0,0,2.1,16.3,3.2,21.5
		c1.1,5.2,7.1,14.3,9.3,24C273.9,320.6,273.6,353.2,273.6,353.2z"/>
	<path class="st2" d="M231.2,264.7c0,0-1.1,15.5-1.2,37.6c-0.2,22.2-1.4,53.9-1.4,53.9l-0.8,0.3l0,0c0,0-1.6-53.9-1.1-59
		c0.6-5.1,2.1-16.1,0-21.7c-2.1-5.5-11-10.5-11-10.5l0-0.1c-0.4-3.3-0.7-5.7-0.7-5.7L231.2,264.7z"/>
	<path class="st2" d="M273.6,353.2l-3.9,0.9c0,0-1.1-3.9-2.5-8.7c0,0,3.2-18.2,1.9-27c-1.3-8.9-5.4-23.2-6.2-24.3
		c-0.8-1.2-1.4,3.6-2,3.2c-0.6-0.4-1.5-19.1-3.8-22.8c-2.3-3.7-15.3-5.2-15.3-5.2l0,0c-0.7-2.1-1.1-3.4-1.1-3.4l18.3-0.3
		c0,0,2.1,16.3,3.2,21.5c1.1,5.2,7.1,14.3,9.3,24C273.9,320.6,273.6,353.2,273.6,353.2z"/>
	<path class="st1" d="M215.5,102.3c0,0,0.7,8.1,1,12.5c0.3,4.4,1.8,8.6,1.8,8.6s4.2,2,12.6,1.3c8.5-0.7,13.9-1.6,16-1
		c2,0.6,4,2.6,4,2.6s6.2-9.6,7.1-12.4c1-2.8-0.3-14-0.3-14l-24.9-24l-14.2,5.4C218.7,81.3,214.3,98.4,215.5,102.3z"/>
	<path class="st2" d="M208.1,154.9c0,0-1.1,6.2-1.9,12.1c-0.8,5.9-2.2,10-2.2,10l14.3-1.6l2-19.2l-8.2-2.6L208.1,154.9z"/>
	<path class="st2" d="M266.9,242.8c0,0-1.4,6.2-0.8,6.3s2.2-2.7,2.6-4.3c0.4-1.6,0.7-2.5,0.7-2.5s-2.6,7.6-2.3,8.1
		c0.3,0.6,1.4-0.9,2.3-2.6c0.9-1.7,2.2-4.7,2.2-4.7l-5.1-6.6L266.9,242.8z"/>
	
		<linearGradient id="SVGID_00000061472915669685844440000013694568243684799666_" gradientUnits="userSpaceOnUse" x1="271.1268" y1="252.3884" x2="258.0844" y2="157.0417">
		<stop  offset="0" style="stop-color:#FDC38B"/>
		<stop  offset="1" style="stop-color:#FDA37D"/>
	</linearGradient>
	<path style="fill:url(#SVGID_00000061472915669685844440000013694568243684799666_);" d="M273.6,244.6c0.1,1.3-3,8-3.7,8
		c-0.7,0,0.1-3.4,0.7-5c0.6-1.7,1-3.1,0.9-3.6c-0.1-0.5-2.9-3.6-3.5-4.6c-0.3-0.6-0.5-0.9-0.5-0.9c0.1,0.4,1.2,2.9,1.5,4.2
		c0.4,1.3,1.2,2.2,0.9,2.6c-0.4,0.5-1.6-0.2-3.1-2.4c-1.6-2.3-4.2-6.5-4.1-7.3c0-0.4,0.3-3.5,0.4-6.4c0.1-2,0.1-4,0-5
		c0-0.1,0-0.2-0.1-0.3c-0.7-3.4-6.6-20.7-6.7-25.7c-0.2-5.2,0-17.8,0-20.7c0-2.1-1.2-11.9-1.8-16.9c-0.2-1.7-0.4-2.9-0.4-2.9
		s0.5,0,1.4,0c3,0,9.9,0.1,9.9,0.8c0,0-0.2,6.1-0.2,12.1v0c0,3.4,0,6.7,0.2,9c0.4,6.2,2.8,14.7,3.1,21.1c0.3,6.4-2.7,24.2-1.7,26.1
		S273.6,243.2,273.6,244.6z"/>
	<path class="st2" d="M265.6,158.3c0,0-0.2,6.1-0.2,12.1v0c0,0-5.6,9.7-7,14.9c-1.4,5.2,0,15.6,2.5,22.7c1.5,4.3,2,11,2.2,15.6
		c-0.7-3.4-6.6-20.7-6.7-25.7c-0.2-5.2,0-17.8,0-20.7c0-2.1-1.2-11.9-1.8-16.9l1-2.9C258.6,157.6,265.6,157.6,265.6,158.3z"/>
	<path class="st84" d="M259.5,159.6l10.5-2.2c0,0-5.8-17-7.8-20.1c-1.2-1.9-7.9-4.3-7.9-4.3l-1,12.2L259.5,159.6z"/>
	<path class="st2" d="M251.1,131.9c0,0-1,5-6,5.1c-5,0.2-17.7-7.7-17.7-7.7s2.9-0.4,5.4-1.1c1.5-0.4,2.8-0.8,3.1-1.2
		c1-1.1,1.4-3.4,1.4-3.4l8.5-6.6c0,0-1.1,8-0.4,9.6c0.1,0.3,0.4,0.6,0.7,1C247.7,129.4,251.1,131.9,251.1,131.9z"/>
	<path class="st6" d="M246.1,127.6c0,0-2.7,2.1-7.1,1.7c-4.4-0.3-6.2-1.1-6.2-1.1c1.5-0.4,2.8-0.8,3.1-1.2c1-1.1,1.4-3.4,1.4-3.4
		l8.5-6.6c0,0-1.1,8-0.4,9.6C245.5,126.9,245.8,127.3,246.1,127.6z"/>
	
		<linearGradient id="SVGID_00000160903039943716768070000014780139480931963566_" gradientUnits="userSpaceOnUse" x1="243.4827" y1="123.9357" x2="236.3055" y2="71.4671">
		<stop  offset="0" style="stop-color:#FDC38B"/>
		<stop  offset="1" style="stop-color:#FDA37D"/>
	</linearGradient>
	<path style="fill:url(#SVGID_00000160903039943716768070000014780139480931963566_);" d="M254.1,111.2c-2.7,4.7-13.3,13-16.4,13.5
		c-0.4,0.1-0.8,0-1.4-0.2c-4.9-1.6-15.1-12.3-15.6-15.3c-0.5-3.3,0.4-9.9,0.7-12.8c0.3-2.3,0.6-5.7,0.4-9.5c-0.1-1-0.1-1.9-0.1-2.7
		c0-3.9,8-11.5,14.6-12.8c6.6-1.3,20.1,6.8,22.3,12.5S256.8,106.5,254.1,111.2z"/>
	<path class="st2" d="M254.1,111.2c-2.7,4.7-13.3,13-16.4,13.5c-0.4,0.1-0.8,0-1.4-0.2c0,0,9.7-4.4,14.6-15.1
		c5-10.7,3.9-20.1-1.1-24.9c-5-4.8-17.1-5.7-21.4-3.5c-2.6,1.3-5.1,4-6.7,5.9c-0.1-1-0.1-1.9-0.1-2.7c0-3.9,8-11.5,14.6-12.8
		c6.6-1.3,20.1,6.8,22.3,12.5S256.8,106.5,254.1,111.2z"/>
	<path class="st10" d="M230.1,100.3c0,0-0.8-10.9-4.2-10.7c-3.4,0.2-4.4,6.9-4.4,6.9s0.5,3.4,3.1,4.2
		C227.2,101.5,230.1,100.3,230.1,100.3z"/>
	<path class="st10" d="M239.2,101.3c0,0,4.6,0.9,8.6-1c3.9-1.9,5-4.4,3.9-6.5c-1-2-2-5-4.8-4.6C243.3,89.7,239.2,101.3,239.2,101.3z
		"/>
	
		<linearGradient id="SVGID_00000002385788782768569110000010621245356370210187_" gradientUnits="userSpaceOnUse" x1="242.9551" y1="94.4797" x2="249.8758" y2="94.4797">
		<stop  offset="0" style="stop-color:#A43113"/>
		<stop  offset="1" style="stop-color:#6F160D"/>
	</linearGradient>
	<path style="fill:url(#SVGID_00000002385788782768569110000010621245356370210187_);" d="M249.9,94.5c0,2.8-1.5,5-3.5,5
		s-3.5-2.3-3.5-5c0-2.8,1.5-5,3.5-5S249.9,91.7,249.9,94.5z"/>
	<path class="st1" d="M249,94.4c0,2-1.1,3.6-2.5,3.6c-1.4,0-2.5-1.6-2.5-3.6c0-2,1.1-3.6,2.5-3.6C247.9,90.8,249,92.4,249,94.4z"/>
	
		<linearGradient id="SVGID_00000160888854479417283120000001322032418597802651_" gradientUnits="userSpaceOnUse" x1="223.4813" y1="94.6963" x2="229.5001" y2="94.6963">
		<stop  offset="0" style="stop-color:#A43113"/>
		<stop  offset="1" style="stop-color:#6F160D"/>
	</linearGradient>
	<path style="fill:url(#SVGID_00000160888854479417283120000001322032418597802651_);" d="M229.5,94.9c0,0.5-0.1,1-0.1,1.4
		c-0.4,2-1.5,3.4-2.9,3.4c-1.7,0-3-2.3-3-5c0-0.5,0-1,0.1-1.5c0,0,0,0,0,0c0.4-2.1,1.5-3.5,2.9-3.5c0.8,0,1.5,0.5,2,1.3
		C229,92.1,229.3,93.5,229.5,94.9z"/>
	<path class="st1" d="M228.6,94.7c0,2-1,3.6-2.1,3.6c-1.2,0-2.1-1.6-2.1-3.6s1-3.6,2.1-3.6C227.7,91.1,228.6,92.7,228.6,94.7z"/>
	<path class="st1" d="M239.2,101.3c0,0,2.5-12,6.9-13.5c4.4-1.4,5.3,3.1,6.1,3.1c0.8,0,1.4-0.6,1.4-0.6s-1.1,3.3-2,3.5
		c-1.3,0.3-2.3-4-4.9-3.7C243,90.7,239.2,101.3,239.2,101.3z"/>
	<path class="st1" d="M230.1,100.3c-0.1-0.5-0.3-2.2-0.7-4c-0.2-0.9-0.4-1.7-0.7-2.5c0,0,0,0,0,0c-0.6-1.6-1.4-3-2.4-3.2
		c0,0-0.1,0-0.1,0c-0.9-0.1-1.7,1.2-2.5,2.7c0,0,0,0,0,0c-0.7,1.3-1.3,2.8-1.8,3.2c-1.2,0.9-2.3-4.4-2.3-4.4s0.6,1.7,1.5,1.6
		c0.9-0.1,1.4-5.2,5.2-5.2c1,0,1.8,1.1,2.4,2.6c0.4,1.1,0.8,2.5,1,3.9C229.9,97.4,230.1,99.8,230.1,100.3z"/>
	<path class="st2" d="M221.6,97.1c0,0,0.9,1.9,2.8,2.4c1.9,0.6,4.1,1.5,4.1,1.5s-3.3,0.6-4.5,0C222.7,100.5,221.6,97.1,221.6,97.1z"
		/>
	<path class="st2" d="M241.1,101.6c0,0,3.6-1.3,6.2-2.5c2.6-1.1,4.4-2.2,4.4-2.2s-0.7,2.2-2.8,3.5
		C246.7,101.8,241.1,101.6,241.1,101.6z"/>
	<path class="st10" d="M225.6,97c0,0.7-0.6,1.2-1.2,1.2s-1.2-0.6-1.2-1.2c0-0.7,0.6-1.2,1.2-1.2S225.6,96.4,225.6,97z"/>
	<path class="st10" d="M245.3,97.3c0,0.7-0.6,1.2-1.2,1.2s-1.2-0.6-1.2-1.2s0.6-1.2,1.2-1.2S245.3,96.6,245.3,97.3z"/>
	<path class="st1" d="M242.9,79.1c0,0,4.4,1.1,7.6,3.9c3.2,2.8,3.8,6.2,3.8,6.2s-2.2-2.6-4.7-4.1C246.7,83.4,243.1,82.5,242.9,79.1z
		"/>
	<path class="st1" d="M229.7,79.3c0,0-2.5,0.7-5.3,3.2c-2.4,2.2-2.5,6.3-2.5,6.3s1-3.1,2.9-4.3C226.7,83.2,229.6,82.2,229.7,79.3z"
		/>
	<path class="st2" d="M239.2,104.1c0,0-3,1-5.5,1.4c-2.5,0.4-4.1-0.3-4.1-0.3s1.7,2.8,3.4,2.8c1.7,0,3.7-2.3,3.7-2.3
		s0.4,0.4,1.3,0.4C238.8,106,239.2,104.1,239.2,104.1z"/>
	<g>
		<path class="st1" d="M230.4,112.4c0,0,1.5,2.1,2.2,2.7s2.8,2,2.8,2l4.7-1.8l2.1-3.4l2.6-3.4l0.1-0.8c0,0-7,4.1-9.2,4.4
			C233.5,112.4,230.4,112.4,230.4,112.4z"/>
		<path class="st88" d="M244.7,108.1c0,0-3.8,6.3-7.9,7.7c-1.5,0.5-3.6-0.5-4.6-1.6c-1-1.2-1.6-2-1.6-2l-0.7-0.6
			c0,0,0.5,1.2,2.2,3.3c1.6,2.1,2.2,3.8,4.4,3.8c2.2-0.1,4.3-2,5.8-4.3c1.5-2.3,3.5-7,3.5-7L244.7,108.1z"/>
		<path class="st10" d="M231.3,113.1c0,0,2.1,1.3,3.1,1.4c1.1,0.1,2.1,0.1,4.7-1.5c2.7-1.6,4.4-4,4.4-4L231.3,113.1z"/>
		<path class="st89" d="M229.3,111.3c0,0,1.3,1.9,3.6,2.1c2.3,0.2,5.6-1,7.3-2.2c1.8-1.2,5.8-4.1,5.8-4.1l-0.3-0.2
			c0,0-8.3,3.8-11.5,4.3C230.9,111.8,229.3,111.3,229.3,111.3z"/>
		<path class="st2" d="M244.6,104.9c0,0-0.3,1.1,0.9,2c1.2,0.9,1.9,1.9,1.9,1.9s0.4-0.7,0-1.4C247.1,106.7,244.9,105.6,244.6,104.9z
			"/>
	</g>
	<path class="st1" d="M252,78.3c0,0-12.7-3.3-22-0.9c-9.2,2.4-13,13.6-13.8,17.5c-0.8,3.9-1.5,20.8-1.5,20.8s-0.6-6.1-0.9-12.3
		c-0.3-6.1-0.2-31.3,5.6-35.1S252,78.3,252,78.3z"/>
	<path class="st1" d="M255.7,104.3l3.8-4c0,0,0.4-2.6-0.3-5.6c-0.8-3.1-3.2-7.1-3.2-7.1s0.4,6.2,0.4,9.5
		C256.4,100.3,255.7,104.3,255.7,104.3z"/>
	
		<linearGradient id="SVGID_00000160875951427497486820000014057818923754881667_" gradientUnits="userSpaceOnUse" x1="213.4589" y1="95.6222" x2="274.6394" y2="95.6222">
		<stop  offset="0" style="stop-color:#7D1831"/>
		<stop  offset="1" style="stop-color:#5C0000"/>
	</linearGradient>
	<path style="fill:url(#SVGID_00000160875951427497486820000014057818923754881667_);" d="M252,78.3c0,0-22.4-9.6-28.6-9.1
		c-6.2,0.6-8.9,15.1-9.4,24.1c-0.4,9,0,13.2,0,13.2s-1.3-15.3-0.2-25.8c1.1-10.5,5.7-15.4,8.3-15.8c2.5-0.4,22.8-2.8,27.7-1.4
		c4.9,1.3,12.8,9.1,16.4,14.5c3.7,5.4,7.5,18.7,8.3,23.3c0.8,4.5-14.1,22.8-14.1,22.8l2.3-5.8c0,0-3.9,5-6.5,7.4
		c-2.7,2.4-2.7,2.4-2.7,2.4l-2.8-1.8c0,0,7.7-16.5,8.3-24.3c0.6-7.9-4.6-14.6-5.5-17.5C252.7,81.7,252,78.3,252,78.3z"/>
	<path class="st14" d="M251.2,78c0,0-10.5-9.3-13.9-11.8c-3.4-2.5-4.4-2.4-4.4-2.4l2.6-0.2c0,0,3,1.5,9,7.1c5.1,4.7,7.6,7.7,7.6,7.7
		L251.2,78z"/>
	<path class="st14" d="M251.2,64c0,0,0.8,1.6,0.8,5.7c0,4,0,8.7,0,8.7l0.4,1.8c0,0,0.5-5.3,0.8-8.6c0.3-3.3-0.2-6.7-0.2-6.7
		L251.2,64z"/>
	<path class="st14" d="M253.2,83.1c0,0,4.3,2.6,11.2,5.3c6.4,2.4,7.8,3.6,7.8,3.6l0.4,1.5c0,0-0.7-1.2-7.3-3.9
		c-5.1-2.1-11.7-5.1-11.7-5.1L253.2,83.1z"/>
	<path class="st14" d="M257.9,93.7c0,0,4.6,2.7,9.2,7.3c4.5,4.5,2.7,10.6,2.7,10.6l-1.1,1.6c0,0,1.7-7.3-2.2-11.6
		c-3.9-4.3-8-6.4-8-6.4L257.9,93.7z"/>
	<g>
		<path class="st2" d="M255.7,104.3c0,0,1.7-2.8,5.1-4.8c3.4-2,6.5-2.9,7.4-2.2c0.9,0.6,0.1,6.4-2,9.3c-2,2.9-7,6.4-8.9,6.1
			c-2-0.2-3.1-2.2-3.1-2.2L255.7,104.3z"/>
		<path class="st6" d="M255.6,107.6c0,0,2.4-2.1,5.9-4.2c3.5-2,5.6-2.8,5.6-2.8s-3.3,2.4-6,4.2C258.4,106.7,255.6,107.6,255.6,107.6
			z"/>
		<path class="st6" d="M258.7,105.6c0,0-0.6,1.9,0,2.4c0.6,0.5,2.6,0.2,2.6,0.2s-2.3,1.1-3.3,0.2c-1-0.9-0.8-1.7-0.8-1.7
			L258.7,105.6z"/>
	</g>
	<path class="st91" d="M261,265.3c0,0-11.1,1.1-21.6,0.4c0,0,0,0,0,0c-1.5-0.1-3-0.2-4.5-0.4c-11.5-1.4-22.5-6.7-22.5-6.7
		s-3.1-42.4-3.1-45.6c0-3.2,14.9-27.7,16.1-31.7c1.2-4,0.6-12.9,0-14.3c-0.6-1.4-3.4-6.6-4.5-10.1c-0.3-0.9-0.2-3,0.1-5.8v0
		c0.7-7.7,3-20.1,3.3-21.9l0-0.2h5.1c0,0,5.8,4.7,10.6,5.1c4.8,0.5,9.9-3,9.9-3l4.2,1.9c0,0,0.5,5.3,1.3,9.7
		c0.4,1.9,0.8,3.7,1.2,4.6c1.4,3.1,4.8,11.9,3.9,15c-0.1,0.5-0.5,1.2-1,2v0c-0.8,1.3-1.9,2.7-2.9,4.1l0,0c-1.3,1.7-2.4,3.3-2.7,3.9
		c-0.6,1.4-2.5,12.7-2.6,19.1c-0.1,6.4,0.9,10.7,0.9,14.2s-0.6,3.4,0,5.8c0.6,2.4,6,21.7,7.2,33C260.8,255.7,261,265.3,261,265.3z"
		/>
	
		<linearGradient id="SVGID_00000094590504119892513090000011886013618751754416_" gradientUnits="userSpaceOnUse" x1="221.9603" y1="358.7813" x2="235.8576" y2="358.7813">
		<stop  offset="0" style="stop-color:#CA0000"/>
		<stop  offset="1" style="stop-color:#A80009"/>
	</linearGradient>
	<path style="fill:url(#SVGID_00000094590504119892513090000011886013618751754416_);" d="M224.2,358.6c0.4-0.9-3.1-7.6-2-8.6
		c1.2-1,7.4,0,8,0.9c0.6,0.9-0.8,5.3-0.7,6.8c0.1,1.5,6.3,9.4,6.3,9.4s-3.1,1.5-8.4,0.8c-5.3-0.7-5-2.7-5.4-4.2
		C221.6,362.2,224.2,358.6,224.2,358.6z"/>
	
		<linearGradient id="SVGID_00000165204045754608353250000001393658746572891805_" gradientUnits="userSpaceOnUse" x1="261.3989" y1="358.1544" x2="277.0233" y2="358.1544">
		<stop  offset="0" style="stop-color:#CA0000"/>
		<stop  offset="1" style="stop-color:#A80009"/>
	</linearGradient>
	<path style="fill:url(#SVGID_00000165204045754608353250000001393658746572891805_);" d="M267.5,356.2c0.8-1.7-2.4-7.3-1.6-7.7
		c0.8-0.4,6.1-0.3,6.5,0.4c0.4,0.7-0.3,3.9-0.1,4.2c0.2,0.3,1.5,0,1.5,0s2.5,5,3.2,7.2c0.6,2.2-0.2,6.2-1.7,7.1
		c-1.5,0.9-12.8,0.3-13.6-0.6c-0.8-0.9,3-3,4.3-5.5C267.1,359,267.5,356.2,267.5,356.2z"/>
	
		<linearGradient id="SVGID_00000181785288887946673280000003383474451060301982_" gradientUnits="userSpaceOnUse" x1="223.5007" y1="366.4747" x2="235.8576" y2="366.4747">
		<stop  offset="0" style="stop-color:#DDF8FD"/>
		<stop  offset="1" style="stop-color:#8290C5"/>
	</linearGradient>
	<path style="fill:url(#SVGID_00000181785288887946673280000003383474451060301982_);" d="M223.5,366.6c0,0,2.3-1.7,5.9-2.1
		c3.6-0.4,5.3,1,5.3,1l1.1,1.5c0,0-2.2,2-6.9,1.4C224.2,367.8,223.5,366.6,223.5,366.6z"/>
	
		<linearGradient id="SVGID_00000090262978420469074060000016836512342399941000_" gradientUnits="userSpaceOnUse" x1="261.04" y1="366.0941" x2="275.1114" y2="366.0941">
		<stop  offset="0" style="stop-color:#DDF8FD"/>
		<stop  offset="1" style="stop-color:#8290C5"/>
	</linearGradient>
	<path style="fill:url(#SVGID_00000090262978420469074060000016836512342399941000_);" d="M263.5,364.2c0,0,2.8-1.2,6.6,0
		c3.7,1.2,5.1,3.3,5.1,3.3s-1.4,1.1-7.5,1s-6.6-1.6-6.6-1.6S261.3,364.7,263.5,364.2z"/>
	<path class="st84" d="M259.8,164.3L259.8,164.3l-2.9,4.1l0,0l-2.7,3.9c0,0-16.5-2.3-19,0c-2.5,2.3-7,15.3-8.1,21.2
		s-0.1,11.8-2.3,14.2c-2.2,2.4-7.3,15.5-8,23.3c-0.7,7.8,1.6,17.9,5.6,23.1c4,5.1,16.6,11.5,16.9,11.6c-1.5-0.1-3-0.2-4.5-0.4
		c-11.5-1.4-22.5-6.7-22.5-6.7s-3.1-42.4-3.1-45.6c0-3.2,14.9-27.7,16.1-31.7c1.2-4,0.6-12.9,0-14.3c-0.6-1.4-3.4-6.6-4.5-10.1
		c-0.3-0.9-0.2-3,0.1-5.8v0l3.3-21.9l0-0.2h5.1c0,0,5.8,4.7,10.6,5.1c4.8,0.5,9.9-3,9.9-3l4.2,1.9l1.3,9.7c0,0,0,0,0,0
		c-0.4,0-15.3,0-21.2,2.1c-6,2.1-5.1,9.2-4.5,13.8c0.6,4.6,5.5,5.7,12.6,5.7C249.7,164.3,259.8,164.3,259.8,164.3z"/>
	<path class="st84" d="M251.6,195.7c0,0,0.6,6.7,0,10.4c-0.6,3.7-2.2,9-2.2,9s2.6-2.3,3.4-4.7C253.5,208.1,251.6,195.7,251.6,195.7z
		"/>
	
		<linearGradient id="SVGID_00000052070428307245887490000001990275954149592493_" gradientUnits="userSpaceOnUse" x1="228.7368" y1="131.6429" x2="252.1464" y2="131.6429">
		<stop  offset="0" style="stop-color:#CA0000"/>
		<stop  offset="1" style="stop-color:#A80009"/>
	</linearGradient>
	<path style="fill:url(#SVGID_00000052070428307245887490000001990275954149592493_);" d="M231.8,128.5c0,0,4.7,4,9.5,3.5
		c4.8-0.5,7.3-2.1,7.3-2.1l3.6,2.1c0,0-5.6,3.4-11.7,2.7c-6.1-0.7-11.7-5.7-11.7-5.7L231.8,128.5z"/>
	
		<linearGradient id="SVGID_00000041285337354275368290000015596705681881781400_" gradientUnits="userSpaceOnUse" x1="260.6497" y1="158.6107" x2="269.9596" y2="158.6107">
		<stop  offset="0" style="stop-color:#CA0000"/>
		<stop  offset="1" style="stop-color:#A80009"/>
	</linearGradient>
	<path style="fill:url(#SVGID_00000041285337354275368290000015596705681881781400_);" d="M260.6,158.5c0,0,2.7-0.4,4.9-1
		c2.3-0.6,3.9-1.4,3.9-1.4l0.4,1.3c0,0-3.5,2.4-5.6,3c-2.1,0.6-3.4,0.6-3.4,0.6L260.6,158.5z"/>
	<path class="st98" d="M224.4,128.9c0,0-5.9,0.6-9,2.5c-4.6,2.8-11.1,23.5-11.1,23.5s7.9-0.3,12.2,0.6c4.3,0.9,6.9,1.4,6.9,1.4
		S227.3,131.1,224.4,128.9z"/>
	
		<linearGradient id="SVGID_00000038409844841664538790000001898472587909445782_" gradientUnits="userSpaceOnUse" x1="204.3701" y1="155.0739" x2="223.8149" y2="155.0739">
		<stop  offset="0" style="stop-color:#CA0000"/>
		<stop  offset="1" style="stop-color:#A80009"/>
	</linearGradient>
	<path style="fill:url(#SVGID_00000038409844841664538790000001898472587909445782_);" d="M205,152.9c0,0,3.2,0.8,8.5,1.3
		c5.2,0.5,10.3,0.2,10.3,0.2l-0.4,2.8c0,0-4.7,0-9.4-0.7c-4.6-0.6-9.6-1.7-9.6-1.7L205,152.9z"/>
	
		<linearGradient id="SVGID_00000053514533614760312240000011674084161623937195_" gradientUnits="userSpaceOnUse" x1="212.2814" y1="261.3554" x2="260.9742" y2="261.3554">
		<stop  offset="0" style="stop-color:#CA0000"/>
		<stop  offset="1" style="stop-color:#A80009"/>
	</linearGradient>
	<path style="fill:url(#SVGID_00000053514533614760312240000011674084161623937195_);" d="M212.3,256.4c0,0,11.5,5.8,24.7,7.2
		c13.3,1.4,23.9,0,23.9,0l0.1,1.8c0,0-11.4,1.9-24.9,0.6c-13.5-1.3-23.8-6.7-23.8-6.7V256.4z"/>
	<path class="st1" d="M217.9,132.3c0,0,3.5,8.8,4.3,18.5c0.8,9.7-3.3,23.3-3.3,23.3v4.2c0,0,6-16,7.9-25.4
		c1.9-9.5-3.5-25.4-3.5-25.4L217.9,132.3z"/>
	<g>
		<path class="st6" d="M221.2,122.7c0,0,1.5-0.9,2.4-0.9c0.9,0,0,2.3,0,2.3S221.2,123.9,221.2,122.7z"/>
		
			<linearGradient id="SVGID_00000039119894869369728610000011880903528241181828_" gradientUnits="userSpaceOnUse" x1="203.3928" y1="157.5486" x2="226.4147" y2="157.5486">
			<stop  offset="0" style="stop-color:#FDC38B"/>
			<stop  offset="1" style="stop-color:#FDA37D"/>
		</linearGradient>
		<path style="fill:url(#SVGID_00000039119894869369728610000011880903528241181828_);" d="M226.1,131.5c0,0-1,0-1.2-0.8
			c-0.4-1.5,0.2-3.6-0.5-3.2c-0.1,0.1-0.3,0.2-0.5,0.4c0,0,0,0,0,0c-0.9,0.8-2.4,2.7-2.8,3.3c-0.5,0.8-0.2,4.1-0.5,6.2
			c-0.3,2.2-1.6,4.4-1.8,5.1c-0.2,0.7-0.4,35.6-0.9,39.7c-0.6,4.2-6.6,13.5-10.6,13.8c-1.7,0.1-2.7-2.2-3.4-5.3
			c-1-5-0.7-12.2,0.4-15c1.8-4.6,11.2-31,10.6-34.9c-0.7-3.8-5.3-10.9-5-11.4c0.3-0.5,4.5-8.4,5.9-9.1c1.4-0.7,6.7-1.4,7.2-1.3
			c0.3,0.1-0.5,0.7-1.6,1.3l0,0c-0.7,0.4-1.4,0.7-2,1c-1.5,0.6-2.3,2.2-2.3,2.2s2.5-1.3,3.4-1.2c0.9,0.1,0.8,1.2,0.8,1.2
			s1.2-0.5,2,0.1c0.7,0.6,0.7,1.2,0.7,1.2s1.3,0,2,0.4C226.8,125.6,226.1,131.5,226.1,131.5z"/>
		<path class="st2" d="M223.9,127.9c-0.9,0.8-2.4,2.7-2.8,3.3c-0.5,0.8-0.2,4.1-0.5,6.2c-0.3,2.2-1.6,4.4-1.8,5.1
			c-0.2,0.7-0.4,35.6-0.9,39.7c-0.6,4.2-6.6,13.5-10.6,13.8c-1.7,0.1-2.7-2.2-3.4-5.3l0-0.5c0,0,10.1-3.1,11-8.1
			c0.9-5,2-37.4,2.3-38.1c0.2-0.7,0.8-1.8,1.8-4c0.9-2.1,0.5-8.3,0.5-8.8C219.5,130.6,223.6,128.1,223.9,127.9z"/>
		<polygon class="st2" points="224.8,124.9 219.7,127 223.9,124.5 		"/>
		<polygon class="st2" points="222,123.4 218.6,125.1 221.4,123.2 		"/>
		<path class="st2" d="M221.5,120.3L221.5,120.3c-0.7,0.4-1.5,0.8-2.1,1c-1.5,0.6-2.3,2.2-2.3,2.2l-2.2,1.5c0,0,2.1-2.9,3-3.5
			C218.9,120.9,221.5,120.3,221.5,120.3z"/>
	</g>
	<path class="st2" d="M218.3,288.3c0,0,0.5,3.8,1.5,5.9c1,2.1,2.4,3.6,2.4,3.6s-3-0.1-3.9-2.2C217.4,293.5,218.3,288.3,218.3,288.3z
		"/>
</g>
</svg>
